<?xml version="1.0" encoding="UTF-8" standalone="no"?>
<!-- Created with Inkscape (http://www.inkscape.org/) -->

<svg
   xmlns:dc="http://purl.org/dc/elements/1.1/"
   xmlns:cc="http://creativecommons.org/ns#"
   xmlns:rdf="http://www.w3.org/1999/02/22-rdf-syntax-ns#"
   xmlns:svg="http://www.w3.org/2000/svg"
   xmlns="http://www.w3.org/2000/svg"
   xmlns:sodipodi="http://sodipodi.sourceforge.net/DTD/sodipodi-0.dtd"
   xmlns:inkscape="http://www.inkscape.org/namespaces/inkscape"
   width="44.609081mm"
   height="12.986175mm"
   viewBox="0 0 44.609081 12.986175"
   version="1.1"
   id="svg66982"
   sodipodi:docname="lctlogo.svg"
   inkscape:version="0.92.2 (5c3e80d, 2017-08-06)">
  <defs
     id="defs66976">
    <marker
       inkscape:stockid="Arrow1Lstart"
       orient="auto"
       refY="0"
       refX="0"
       id="marker67922"
       style="overflow:visible"
       inkscape:isstock="true">
      <path
         id="path67920"
         d="M 0,0 5,-5 -12.5,0 5,5 Z"
         style="fill:#800000;fill-opacity:1;fill-rule:evenodd;stroke:#800000;stroke-width:1.00000003pt;stroke-opacity:1"
         transform="matrix(0.8,0,0,0.8,10,0)"
         inkscape:connector-curvature="0" />
    </marker>
    <marker
       inkscape:stockid="Arrow1Lstart"
       orient="auto"
       refY="0"
       refX="0"
       id="marker67882"
       style="overflow:visible"
       inkscape:isstock="true">
      <path
         id="path67880"
         d="M 0,0 5,-5 -12.5,0 5,5 Z"
         style="fill:#800000;fill-opacity:1;fill-rule:evenodd;stroke:#800000;stroke-width:1.00000003pt;stroke-opacity:1"
         transform="matrix(0.8,0,0,0.8,10,0)"
         inkscape:connector-curvature="0" />
    </marker>
    <marker
       inkscape:stockid="Arrow1Lstart"
       orient="auto"
       refY="0"
       refX="0"
       id="Arrow1Lstart"
       style="overflow:visible"
       inkscape:isstock="true">
      <path
         id="path67604"
         d="M 0,0 5,-5 -12.5,0 5,5 Z"
         style="fill:#800000;fill-opacity:1;fill-rule:evenodd;stroke:#800000;stroke-width:1.00000003pt;stroke-opacity:1"
         transform="matrix(0.8,0,0,0.8,10,0)"
         inkscape:connector-curvature="0" />
    </marker>
    <inkscape:perspective
       sodipodi:type="inkscape:persp3d"
       inkscape:vp_x="119.64565 : 183.53512 : 1"
       inkscape:vp_y="0 : 210.3274 : 0"
       inkscape:vp_z="151.18584 : 183.53512 : 1"
       inkscape:persp3d-origin="135.41575 : 173.12391 : 1"
       id="perspective67486" />
    <inkscape:perspective
       sodipodi:type="inkscape:persp3d"
       inkscape:vp_x="0 : 148.5 : 1"
       inkscape:vp_y="0 : 1000 : 0"
       inkscape:vp_z="210 : 148.5 : 1"
       inkscape:persp3d-origin="105 : 99.000002 : 1"
       id="perspective67456" />
    <inkscape:perspective
       sodipodi:type="inkscape:persp3d"
       inkscape:vp_x="123.84321 : 193.04261 : 1"
       inkscape:vp_y="0 : 197.18195 : 0"
       inkscape:vp_z="153.41214 : 193.04261 : 1"
       inkscape:persp3d-origin="138.62768 : 183.2821 : 1"
       id="perspective67486-2" />
  </defs>
  <sodipodi:namedview
     id="base"
     pagecolor="#ffffff"
     bordercolor="#666666"
     borderopacity="1.0"
     inkscape:pageopacity="0.0"
     inkscape:pageshadow="2"
     inkscape:zoom="3.959798"
     inkscape:cx="150.77395"
     inkscape:cy="-11.03011"
     inkscape:document-units="mm"
     inkscape:current-layer="text67526"
     showgrid="false"
     inkscape:window-width="1920"
     inkscape:window-height="1001"
     inkscape:window-x="-9"
     inkscape:window-y="-9"
     inkscape:window-maximized="1"
     fit-margin-top="0"
     fit-margin-left="0"
     fit-margin-right="0"
     fit-margin-bottom="0" />
  <metadata
     id="metadata66979">
    <rdf:RDF>
      <cc:Work
         rdf:about="">
        <dc:format>image/svg+xml</dc:format>
        <dc:type
           rdf:resource="http://purl.org/dc/dcmitype/StillImage" />
        <dc:title></dc:title>
      </cc:Work>
    </rdf:RDF>
  </metadata>
  <g
     inkscape:label="Laag 1"
     inkscape:groupmode="layer"
     id="layer1"
     transform="translate(-123.01001,-81.887928)">
    <g
       id="g1122"
       transform="matrix(0.2822222,0,0,0.2822222,68.644056,-112.95229)">
      <g
         sodipodi:type="inkscape:box3d"
         id="g67458"
         style="opacity:1;vector-effect:none;fill:#000000;fill-opacity:0;stroke:#1d8db0;stroke-width:4;stroke-linecap:butt;stroke-linejoin:miter;stroke-miterlimit:4;stroke-dasharray:none;stroke-dashoffset:0;stroke-opacity:1"
         inkscape:perspectiveID="#perspective67456"
         inkscape:corner0="0.26702522 : 0.14773218 : 0 : 1"
         inkscape:corner7="0.15148303 : 0.12876385 : 0.25 : 1">
        <path
           sodipodi:type="inkscape:box3dside"
           id="path67460"
           style="fill:#353564;fill-rule:evenodd;stroke:none;stroke-linejoin:round"
           inkscape:box3dsidetype="6"
           d="m 486.2737,941.84812 v 53.046 l 74.23346,36.52968 v -44.30421 z"
           points="486.2737,994.89412 560.50716,1031.4238 560.50716,987.11959 486.2737,941.84812 " />
        <path
           sodipodi:type="inkscape:box3dside"
           id="path67470"
           style="fill:#e9e9ff;fill-rule:evenodd;stroke:none;stroke-linejoin:round"
           inkscape:box3dsidetype="11"
           d="m 560.50716,987.11959 30.32839,-18.91571 v 47.95682 l -30.32839,15.2631 z"
           points="590.83555,968.20388 590.83555,1016.1607 560.50716,1031.4238 560.50716,987.11959 " />
        <path
           sodipodi:type="inkscape:box3dside"
           id="path67462"
           style="fill:#4d4d9f;fill-rule:evenodd;stroke:none;stroke-linejoin:round"
           inkscape:box3dsidetype="5"
           d="m 486.2737,941.84812 29.46428,-27.56515 75.09757,53.92091 -30.32839,18.91571 z"
           points="515.73798,914.28297 590.83555,968.20388 560.50716,987.11959 486.2737,941.84812 " />
        <path
           sodipodi:type="inkscape:box3dside"
           id="path67468"
           style="fill:#afafde;fill-rule:evenodd;stroke:none;stroke-linejoin:round"
           inkscape:box3dsidetype="13"
           d="m 486.2737,994.89412 29.46428,-22.2424 75.09757,43.50898 -30.32839,15.2631 z"
           points="515.73798,972.65172 590.83555,1016.1607 560.50716,1031.4238 486.2737,994.89412 " />
        <path
           sodipodi:type="inkscape:box3dside"
           id="path67466"
           style="fill:#d7d7ff;fill-rule:evenodd;stroke:none;stroke-linejoin:round"
           inkscape:box3dsidetype="14"
           d="m 515.73798,914.28297 v 58.36875 l 75.09757,43.50898 v -47.95682 z"
           points="515.73798,972.65172 590.83555,1016.1607 590.83555,968.20388 515.73798,914.28297 " />
        <path
           sodipodi:type="inkscape:box3dside"
           id="path67464"
           style="fill:#8686bf;fill-rule:evenodd;stroke:none;stroke-linejoin:round"
           inkscape:box3dsidetype="3"
           d="m 486.2737,941.84812 29.46428,-27.56515 v 58.36875 l -29.46428,22.2424 z"
           points="515.73798,914.28297 515.73798,972.65172 486.2737,994.89412 486.2737,941.84812 " />
      </g>
      <g
         id="g68000">
        <g
           aria-label="t"
           style="font-style:normal;font-weight:normal;font-size:70.00000763px;line-height:1.25;font-family:sans-serif;letter-spacing:0px;word-spacing:0px;fill:#800000;fill-opacity:1;stroke:none;stroke-width:0.93750006"
           id="text67532">
          <path
             d="m 226.69743,690.37878 h -0.7 c -1.47,0 -2.17,0.56 -2.24,1.54 l -0.84,7.35 h -3.5 c -0.98,0 -1.4,0.63 -1.4,2.1 v 0.84 c 0,1.47 0.42,2.1 1.4,2.1 h 3.5 v 22.33 c 0,8.12 5.53,9.66 9.03,9.66 1.89,0 5.11,-0.21 5.11,-2.1 0,-0.56 -0.49,-3.29 -1.47,-3.29 -0.63,0 -0.98,0.35 -3.01,0.35 -2.03,0 -3.78,-0.98 -3.78,-5.18 v -21.77 h 5.88 c 0.98,0 1.4,-0.63 1.4,-2.1 v -0.84 c 0,-1.47 -0.42,-2.1 -1.4,-2.1 h -5.88 v -7.35 c 0,-0.98 -0.63,-1.54 -2.1,-1.54 z"
             style="font-style:normal;font-variant:normal;font-weight:normal;font-stretch:normal;font-family:asap;-inkscape-font-specification:asap;fill:#800000;stroke-width:0.93750006"
             id="path898" />
        </g>
        <path
           sodipodi:nodetypes="czssc"
           inkscape:connector-curvature="0"
           id="path67536"
           d="m 226.64589,699.70036 h 75.03045 c 17.15402,0 16.27491,-1.61863 22.86055,1.875 1.74762,0.9271 4.23705,3.75095 6.95151,7.39959 7.51461,10.10075 18.03697,26.52253 18.03697,26.52253"
           style="fill:none;stroke:#800000;stroke-width:0.93750006px;stroke-linecap:butt;stroke-linejoin:miter;stroke-opacity:1" />
        <path
           sodipodi:nodetypes="czssc"
           inkscape:connector-curvature="0"
           id="path67536-9"
           d="m 229.10269,701.10146 h 75.03045 c 17.15402,0 14.48616,-4.06219 21.0718,-0.56856 1.21346,0.64373 3.74254,3.02823 5.32304,5.23479 6.9971,9.76875 17.18104,29.64512 17.18104,29.64512"
           style="fill:none;stroke:#800000;stroke-width:0.93750006px;stroke-linecap:butt;stroke-linejoin:miter;stroke-opacity:1" />
        <path
           sodipodi:nodetypes="czzc"
           inkscape:connector-curvature="0"
           id="path67536-9-6"
           d="m 230.92003,703.84488 h 75.03045 c 17.15402,0 10.71961,-2.58248 17.30525,0.91115 6.58564,3.49363 21.66188,26.63972 21.66188,26.63972"
           style="fill:none;stroke:#800000;stroke-width:0.93750006px;stroke-linecap:butt;stroke-linejoin:miter;stroke-opacity:1" />
        <path
           sodipodi:nodetypes="csssc"
           inkscape:connector-curvature="0"
           id="path67536-9-2"
           d="m 230.10532,702.47687 h 75.03045 c 10.70274,0 7.99211,-0.0699 11.37416,-0.3716 2.0386,-0.18187 6.03606,-1.38763 8.03827,0.57249 5.82968,5.70712 24.97717,32.81972 24.97717,32.81972"
           style="fill:none;stroke:#800000;stroke-width:0.93750006px;stroke-linecap:butt;stroke-linejoin:miter;stroke-opacity:1" />
        <path
           sodipodi:nodetypes="czsssc"
           inkscape:connector-curvature="0"
           id="path67536-9-0"
           d="m 229.10269,698.41622 c 0,0 58.00199,0.16741 75.03045,0 17.02846,-0.16741 17.28912,-1.00234 18.97917,-0.3593 0.72276,0.275 2.66422,1.10349 3.25779,1.60634 1.25772,1.06546 2.70746,1.92012 3.78121,3.41919 6.99709,9.76875 13.58171,21.29133 13.58171,21.29133"
           style="fill:none;stroke:#ffffff;stroke-width:0.93750006;stroke-linecap:butt;stroke-linejoin:miter;stroke-miterlimit:4;stroke-dasharray:2.81250022, 0.93750007000000002;stroke-dashoffset:0;stroke-opacity:1" />
        <g
           aria-label="lc  oolbox"
           style="font-style:normal;font-weight:normal;font-size:37.50000381px;line-height:1.25;font-family:sans-serif;letter-spacing:0px;word-spacing:0px;fill:#000000;fill-opacity:1;stroke:none;stroke-width:0.93750006"
           id="text67526">
          <path
             d="m 194.28527,707.96778 h -0.15 c -1.05,0 -1.5,0.3 -1.5,0.825 v 22.42501 c 0,4.35 2.9625,5.175 4.8375,5.175 1.0125,0 2.7375,-0.1125 2.7375,-1.125 0,-0.3 -0.2625,-1.7625 -0.7875,-1.7625 -0.3375,0 -0.525,0.1875 -1.6125,0.1875 -1.0875,0 -2.025,-0.525 -2.025,-2.775 v -22.12501 c 0,-0.525 -0.45,-0.825 -1.5,-0.825 z"
             style="font-style:normal;font-variant:normal;font-weight:normal;font-stretch:normal;font-family:asap;-inkscape-font-specification:asap;fill:#000000;stroke-width:0.93750006"
             id="path881" />
          <path
             d="m 211.53059,716.33028 c -4.3125,0 -8.8875,2.1 -8.8875,9.9375 0,7.23751 3.15,10.12501 9.225,10.12501 3.2625,0 5.8875,-1.05 5.8875,-1.9125 0,-0.525 -0.75,-1.9125 -1.275,-1.9125 -0.0375,0 -0.1875,0.075 -0.4125,0.15 -0.675,0.3375 -2.1375,0.975 -4.2375,0.975 -4.2375,0 -5.8125,-2.25 -5.8125,-7.50001 0,-5.2125 2.1375,-7.1625 5.4375,-7.1625 2.025,0 3.4125,0.6 4.0875,0.9 0.225,0.075 0.3375,0.15 0.4125,0.15 0.4875,0 1.2,-1.425 1.2,-2.025 0,-0.9 -2.7375,-1.725 -5.625,-1.725 z"
             style="font-style:normal;font-variant:normal;font-weight:normal;font-stretch:normal;font-family:asap;-inkscape-font-specification:asap;fill:#000000;stroke-width:0.93750006"
             id="path883" />
          <path
             d="m 247.63723,716.33028 c -5.5875,0 -8.7,3.6375 -8.7,10.125 0,6.45001 3.0375,9.93751 8.7,9.93751 5.5875,0 8.5125,-3.45 8.5125,-9.93751 0,-6.525 -3,-10.125 -8.5125,-10.125 z m -0.1125,2.7 c 3.675,0 5.3625,2.3625 5.3625,7.35 0,4.98751 -1.6875,7.31251 -5.3625,7.31251 -3.675,0 -5.2875,-2.325 -5.2875,-7.31251 0,-5.025 1.65,-7.35 5.2875,-7.35 z"
             style="font-style:normal;font-variant:normal;font-weight:normal;font-stretch:normal;font-family:asap;-inkscape-font-specification:asap;fill:#000000;stroke-width:0.93750006"
             id="path885" />
          <path
             d="m 268.95071,716.33028 c -5.5875,0 -8.7,3.6375 -8.7,10.125 0,6.45001 3.0375,9.93751 8.7,9.93751 5.5875,0 8.5125,-3.45 8.5125,-9.93751 0,-6.525 -3,-10.125 -8.5125,-10.125 z m -0.1125,2.7 c 3.675,0 5.3625,2.3625 5.3625,7.35 0,4.98751 -1.6875,7.31251 -5.3625,7.31251 -3.675,0 -5.2875,-2.325 -5.2875,-7.31251 0,-5.025 1.65,-7.35 5.2875,-7.35 z"
             style="font-style:normal;font-variant:normal;font-weight:normal;font-stretch:normal;font-family:asap;-inkscape-font-specification:asap;fill:#000000;stroke-width:0.93750006"
             id="path887" />
          <path
             d="m 284.22669,707.96778 h -0.15 c -1.05,0 -1.5,0.3 -1.5,0.825 v 22.42501 c 0,4.35 2.9625,5.175 4.8375,5.175 1.0125,0 2.7375,-0.1125 2.7375,-1.125 0,-0.3 -0.2625,-1.7625 -0.7875,-1.7625 -0.3375,0 -0.525,0.1875 -1.6125,0.1875 -1.0875,0 -2.025,-0.525 -2.025,-2.775 v -22.12501 c 0,-0.525 -0.45,-0.825 -1.5,-0.825 z"
             style="font-style:normal;font-variant:normal;font-weight:normal;font-stretch:normal;font-family:asap;-inkscape-font-specification:asap;fill:#000000;stroke-width:0.93750006"
             id="path889" />
          <path
             d="m 295.472,707.96778 h -0.15 c -1.05,0 -1.5,0.3 -1.5,0.825 v 26.62501 c 0,0.525 0.3375,0.825 1.125,0.825 h 0.15 c 0.525,0 0.8625,-0.1125 1.0125,-0.45 0.3,-0.75 0.4875,-1.4625 0.6,-2.2125 1.8375,1.9125 3.825,2.8125 5.9625,2.8125 4.5,0 7.275,-4.2 7.275,-10.05001 0,-6.4875 -3.15,-10.0125 -7.6125,-10.0125 -2.325,0 -3.9,0.7875 -5.3625,1.9125 v -9.45 c 0,-0.525 -0.45,-0.825 -1.5,-0.825 z m 6.15,11.1375 c 3.3375,0.075 5.025,2.5125 5.025,6.975 0,4.83751 -1.65,7.57501 -4.6125,7.57501 -1.65,0 -3.525,-0.9 -5.0625,-2.5875 v -10.27501 c 1.35,-1.125 3.0375,-1.6875 4.65,-1.6875 z"
             style="font-style:normal;font-variant:normal;font-weight:normal;font-stretch:normal;font-family:asap;-inkscape-font-specification:asap;fill:#000000;stroke-width:0.93750006"
             id="path891" />
          <path
             d="m 322.71048,716.33028 c -5.5875,0 -8.7,3.6375 -8.7,10.125 0,6.45001 3.0375,9.93751 8.7,9.93751 5.5875,0 8.5125,-3.45 8.5125,-9.93751 0,-6.525 -3,-10.125 -8.5125,-10.125 z m -0.1125,2.7 c 3.675,0 5.3625,2.3625 5.3625,7.35 0,4.98751 -1.6875,7.31251 -5.3625,7.31251 -3.675,0 -5.2875,-2.325 -5.2875,-7.31251 0,-5.025 1.65,-7.35 5.2875,-7.35 z"
             style="font-style:normal;font-variant:normal;font-weight:normal;font-stretch:normal;font-family:asap;-inkscape-font-specification:asap;fill:#000000;stroke-width:0.93750006"
             id="path893" />
          <path
             d="m 348.71146,716.48028 h -0.15 c -0.75,0 -1.425,0.1125 -1.6875,0.525 l -3.6,5.4 c -0.45,0.675 -0.6375,1.05 -0.7875,1.3125 -0.15,-0.2625 -0.3375,-0.6375 -0.7875,-1.3125 l -3.5625,-5.3625 c -0.3,-0.45 -0.825,-0.5625 -1.6125,-0.5625 h -0.3375 c -1.275,0 -1.725,0.225 -1.725,0.6375 0,0.1875 0.1125,0.4125 0.3,0.675 l 5.625,8.325 -6.075,8.81251 c -0.1875,0.2625 -0.3,0.4875 -0.3,0.675 0,0.45 0.45,0.6375 1.6125,0.6375 h 0.1125 c 0.75,0 1.3875,-0.1125 1.6875,-0.525 l 4.05,-6.00001 c 0.45,-0.675 0.6375,-1.05 0.7875,-1.3125 0.15,0.2625 0.3375,0.6375 0.7875,1.3125 l 3.975,5.96251 c 0.3,0.45 0.825,0.5625 1.6125,0.5625 h 0.3375 c 1.275,0 1.725,-0.225 1.725,-0.6375 0,-0.1875 -0.1125,-0.4125 -0.3,-0.675 l -6.075,-8.88751 5.6625,-8.25 c 0.1875,-0.2625 0.3,-0.4875 0.3,-0.675 0,-0.45 -0.45,-0.6375 -1.575,-0.6375 z"
             style="font-style:normal;font-variant:normal;font-weight:normal;font-stretch:normal;font-family:asap;-inkscape-font-specification:asap;fill:#800000;stroke-width:0.93750006;fill-opacity:1"
             id="path895" />
        </g>
      </g>
    </g>
  </g>
</svg>
