<?xml version="1.0" encoding="UTF-8" standalone="no"?>
<!-- Created with Inkscape (http://www.inkscape.org/) -->

<svg
   xmlns:dc="http://purl.org/dc/elements/1.1/"
   xmlns:cc="http://creativecommons.org/ns#"
   xmlns:rdf="http://www.w3.org/1999/02/22-rdf-syntax-ns#"
   xmlns:svg="http://www.w3.org/2000/svg"
   xmlns="http://www.w3.org/2000/svg"
   xmlns:sodipodi="http://sodipodi.sourceforge.net/DTD/sodipodi-0.dtd"
   xmlns:inkscape="http://www.inkscape.org/namespaces/inkscape"
   width="21.33901mm"
   height="5.6393261mm"
   viewBox="0 0 21.33901 5.6393261"
   version="1.1"
   id="svg1789"
   inkscape:version="0.92.2 (5c3e80d, 2017-08-06)"
   sodipodi:docname="optispline.svg">
  <defs
     id="defs1783" />
  <sodipodi:namedview
     id="base"
     pagecolor="#ffffff"
     bordercolor="#666666"
     borderopacity="1.0"
     inkscape:pageopacity="0.0"
     inkscape:pageshadow="2"
     inkscape:zoom="0.98994949"
     inkscape:cx="41.730879"
     inkscape:cy="-156.19113"
     inkscape:document-units="mm"
     inkscape:current-layer="layer1"
     showgrid="false"
     fit-margin-top="0"
     fit-margin-left="0"
     fit-margin-right="0"
     fit-margin-bottom="0"
     inkscape:window-width="1920"
     inkscape:window-height="1001"
     inkscape:window-x="-9"
     inkscape:window-y="-9"
     inkscape:window-maximized="1" />
  <metadata
     id="metadata1786">
    <rdf:RDF>
      <cc:Work
         rdf:about="">
        <dc:format>image/svg+xml</dc:format>
        <dc:type
           rdf:resource="http://purl.org/dc/dcmitype/StillImage" />
        <dc:title></dc:title>
      </cc:Work>
    </rdf:RDF>
  </metadata>
  <g
     inkscape:label="Laag 1"
     inkscape:groupmode="layer"
     id="layer1"
     transform="translate(-123.13406,-3.1386704)">
    <g
       id="cpplogo-8"
       transform="matrix(0.00549966,0,0,0.00549966,131.15766,0.48385202)">
      <path
         inkscape:connector-curvature="0"
         d="m -173.74958,901.81699 q 50.58804,0 75.950434,23.99689 26.429797,23.34832 22.972199,64.85645 -2.809046,41.50817 -35.478773,92.09617 -32.66973,50.588 -82.82398,92.0962 -49.08685,40.8595 -104.79503,64.8564 -54.64078,23.3484 -103.93169,23.3484 -42.1567,0 -65.87043,-17.5113 -23.29489,-18.1598 -25.8902,-49.2909 l -122.72092,190.0295 q -7.12033,11.0256 -18.8618,18.1598 -11.74147,7.1341 -22.76707,7.1341 -11.0256,0 -13.55255,-7.1341 -1.87838,-7.1342 5.24195,-18.1598 l 93.82077,-145.2785 q 0.60796,-1.9457 3.12101,-5.8371 l 98.42803,-152.4127 q 32.66973,-50.588 82.82399,-92.09617 50.80282,-41.50813 106.74071,-64.85645 57.00532,-23.99689 107.59335,-23.99689 z m -203.97638,315.85091 q 36.96818,0 78.11091,-17.5112 41.79129,-17.5112 78.33958,-47.9938 37.61569,-31.1311 62.3274,-69.3964 24.71172,-38.2653 26.88608,-68.7478 3.24177,-31.13114 -15.93202,-48.64238 -18.10637,-18.15981 -55.07455,-18.15981 -36.96818,0 -78.52975,18.15981 -41.14272,17.51124 -78.75841,48.64238 -36.54828,30.4825 -61.26,68.7478 -7.12032,11.0256 -9.82251,16.2141 -0.18911,1.2972 -1.44564,3.2428 -26.18409,50.5881 -11.45516,83.0163 15.37747,32.4282 66.61407,32.4282 z"
         style="font-style:normal;font-variant:normal;font-weight:normal;font-stretch:normal;font-size:648.5645752px;line-height:1.25;font-family:Comfortaa;-inkscape-font-specification:Comfortaa;letter-spacing:0px;word-spacing:0px;writing-mode:lr-tb;fill:#000000;fill-opacity:1;stroke:#000000;stroke-width:0.87491155px;stroke-linecap:butt;stroke-linejoin:miter;stroke-opacity:1"
         id="path988-2" />
      <path
         inkscape:connector-curvature="0"
         d="m 61.858693,1209.8852 q 10.377034,0 12.25541,7.1342 1.878377,7.1342 -5.241949,18.1598 -6.701481,10.377 -19.091525,17.5112 -12.390044,7.1342 -24.064206,7.1342 H 12.096567 q -34.373923,0 -51.142571,-16.2141 -16.349803,-16.8627 -13.905116,-44.7509 3.512093,-28.5369 26.548438,-64.2079 L 85.428309,961.48493 h -42.1567 q -10.37703,0 -13.093097,-5.83708 -1.648651,-6.48565 4.215144,-15.56555 6.282641,-9.72847 15.889304,-15.56555 10.67408,-6.48565 21.05111,-6.48565 h 42.1567 l 64.92061,-100.52751 q 7.12032,-11.02559 18.21324,-18.15981 11.74148,-7.13421 22.76708,-7.13421 11.0256,0 13.55254,7.13421 2.52693,7.13422 -4.59339,18.15981 L 163.43024,918.0311 h 73.2878 q 10.37703,0 12.02568,6.48565 2.71607,5.83708 -3.56658,15.56555 -5.86379,9.0799 -16.53786,15.56555 -9.60667,5.83708 -19.9837,5.83708 h -73.2878 L 23.536789,1134.6517 q -21.3609736,33.0768 -15.7258429,54.4794 6.0539689,20.7541 36.5365039,20.7541 z"
         style="font-style:normal;font-variant:normal;font-weight:normal;font-stretch:normal;font-size:648.5645752px;line-height:1.25;font-family:Comfortaa;-inkscape-font-specification:Comfortaa;letter-spacing:0px;word-spacing:0px;writing-mode:lr-tb;fill:#000000;fill-opacity:1;stroke:#000000;stroke-width:0.87491155px;stroke-linecap:butt;stroke-linejoin:miter;stroke-opacity:1"
         id="path990-5" />
      <path
         inkscape:connector-curvature="0"
         d="m 169.92073,1259.8246 q -11.0256,0 -13.55255,-7.1342 -2.52694,-7.1342 4.59339,-18.1598 L 357.39878,930.35383 q 7.12032,-11.0256 18.8618,-18.15981 11.74148,-7.13421 22.76708,-7.13421 11.02559,0 12.90397,7.13421 2.52694,7.13421 -4.59338,18.15981 L 210.90104,1234.5306 q -7.12033,11.0256 -18.86181,18.1598 -11.09291,7.1342 -22.1185,7.1342 z m 272.018,-422.21551 q -14.91698,0 -18.59254,-10.37703 -3.02699,-10.37703 6.6064,-25.29402 10.05222,-15.56555 26.7119,-25.29402 16.65967,-9.72846 31.57666,-9.72846 14.26842,0 18.36281,9.72846 4.09439,9.72847 -5.95783,25.29402 -9.63339,14.91699 -26.7119,25.29402 -17.07851,10.37703 -31.9955,10.37703 z"
         style="font-style:normal;font-variant:normal;font-weight:normal;font-stretch:normal;font-size:648.5645752px;line-height:1.25;font-family:Comfortaa;-inkscape-font-specification:Comfortaa;letter-spacing:0px;word-spacing:0px;writing-mode:lr-tb;fill:#000000;fill-opacity:1;stroke:#000000;stroke-width:0.87491155px;stroke-linecap:butt;stroke-linejoin:miter;stroke-opacity:1"
         id="path992-9" />
      <path
         inkscape:connector-curvature="0"
         d="m 979.51299,1017.9701 q 48.59911,0 72.96431,23.0534 25.3906,22.4303 22.069,62.3064 -2.6986,39.8762 -34.0839,88.4753 -31.3852,48.599 -79.56758,88.4752 -47.1569,39.2531 -100.67479,62.3065 -52.49247,22.4303 -99.8454,22.4303 -40.49922,0 -63.2806,-16.8227 -22.37902,-17.4458 -24.87228,-47.353 l -117.89587,182.5581 q -6.84037,10.5921 -18.1202,17.4458 -11.2799,6.8538 -21.872,6.8538 -10.59211,0 -13.01964,-6.8538 -1.80453,-6.8537 5.03584,-17.4458 l 90.13199,-139.5666 q 0.58405,-1.8692 2.9983,-5.6076 l 94.55814,-146.4202 q 31.38525,-48.5991 79.56759,-88.4753 48.80541,-39.8761 102.544,-62.3064 54.76402,-23.0534 103.36309,-23.0534 z m -195.95663,303.4326 q 35.5147,0 75.03982,-16.8228 40.14817,-16.8227 75.25949,-46.1068 36.13675,-29.9071 59.87688,-66.6679 23.74015,-36.7609 25.82895,-66.0449 3.1144,-29.9071 -15.3056,-46.7299 -17.39446,-17.4458 -52.90916,-17.4458 -35.5147,0 -75.44219,17.4458 -39.52511,16.8228 -75.66186,46.7299 -35.11132,29.284 -58.85144,66.0449 -6.84038,10.5921 -9.43631,15.5766 -0.18169,1.2461 -1.38881,3.1153 -25.15461,48.5991 -11.00479,79.7523 14.77289,31.1533 63.99502,31.1533 z"
         style="font-style:normal;font-variant:normal;font-weight:normal;font-stretch:normal;font-size:623.06494141px;line-height:1.25;font-family:Comfortaa;-inkscape-font-specification:Comfortaa;letter-spacing:0px;word-spacing:0px;writing-mode:lr-tb;fill:#000000;fill-opacity:1;stroke:#000000;stroke-width:0.84051269px;stroke-linecap:butt;stroke-linejoin:miter;stroke-opacity:1"
         id="path977-8" />
      <path
         inkscape:connector-curvature="0"
         d="m 1098.238,1361.9019 q -38.007,0 -42.9925,-29.9071 -3.9601,-30.5302 26.6204,-77.8831 l 229.3537,-355.14705 q 6.8404,-10.5921 17.7179,-16.82275 11.2799,-6.85372 21.2489,-6.85372 10.5921,0 12.3966,6.85372 2.83,6.23065 -4.0104,16.82275 l -229.3537,355.14705 q -17.3021,26.7918 -17.5742,43.6145 0.351,16.8228 17.1738,16.8228 h 15.5766 q 9.346,0 10.5275,6.8537 1.5838,6.2306 -5.2565,16.8227 -6.8404,10.5921 -19.3664,17.4459 -11.5006,6.2306 -23.9619,6.2306 z"
         style="font-style:normal;font-variant:normal;font-weight:normal;font-stretch:normal;font-size:623.06494141px;line-height:1.25;font-family:Comfortaa;-inkscape-font-specification:Comfortaa;letter-spacing:0px;word-spacing:0px;writing-mode:lr-tb;fill:#000000;fill-opacity:1;stroke:#000000;stroke-width:0.84051269px;stroke-linecap:butt;stroke-linejoin:miter;stroke-opacity:1"
         id="path979-5" />
      <path
         inkscape:connector-curvature="0"
         d="m 1234.2219,1361.9019 q -10.5921,0 -13.0197,-6.8537 -2.4275,-6.8537 4.4128,-17.4458 l 188.7139,-292.2175 q 6.8404,-10.5921 18.1202,-17.4458 11.2798,-6.8537 21.8719,-6.8537 10.5921,0 12.3967,6.8537 2.4276,6.8537 -4.4128,17.4458 l -188.7139,292.2175 q -6.8403,10.5921 -18.1202,17.4458 -10.6568,6.8537 -21.2489,6.8537 z M 1495.545,956.28663 q -14.3305,0 -17.8616,-9.96904 -2.9079,-9.96904 6.3468,-24.29953 9.657,-14.95356 25.6616,-24.29954 16.0046,-9.34597 30.3351,-9.34597 13.7075,0 17.6409,9.34597 3.9334,9.34598 -5.7236,24.29954 -9.2547,14.33049 -25.6617,24.29953 -16.407,9.96904 -30.7375,9.96904 z"
         style="font-style:normal;font-variant:normal;font-weight:normal;font-stretch:normal;font-size:623.06494141px;line-height:1.25;font-family:Comfortaa;-inkscape-font-specification:Comfortaa;letter-spacing:0px;word-spacing:0px;writing-mode:lr-tb;fill:#000000;fill-opacity:1;stroke:#000000;stroke-width:0.84051269px;stroke-linecap:butt;stroke-linejoin:miter;stroke-opacity:1"
         id="path981-5" />
      <path
         inkscape:connector-curvature="0"
         d="m 1763.9452,1017.347 q 44.2377,0 67.058,18.6919 23.4435,18.692 20.0438,54.8297 -2.9972,35.5148 -35.1872,85.36 l -104.6175,161.9968 q -6.438,9.9691 -17.718,16.8228 -11.2798,6.8537 -21.2488,6.8537 -10.5921,0 -13.0197,-6.8537 -2.4275,-6.8537 4.0105,-16.8228 l 104.6175,-161.9968 q 35.8113,-55.4528 23.1673,-84.1138 -11.6186,-29.2841 -61.4638,-29.2841 -30.5302,0 -63.0979,11.8383 -31.9446,11.8382 -59.9559,33.0224 -27.6089,20.5612 -44.1062,46.1068 l -119.103,184.4272 q -6.8404,10.5921 -18.1202,17.4459 -10.2544,6.2306 -20.8465,6.2306 -10.5921,0 -13.4221,-6.2306 -2.4276,-6.8538 4.4128,-17.4459 l 189.1162,-292.8405 q 6.8404,-10.5921 18.1202,-17.4458 11.2799,-6.8537 21.872,-6.8537 10.5921,0 12.3966,6.8537 2.4276,6.8537 -4.4128,17.4458 l -13.6807,21.1842 q 35.449,-23.0534 73.1829,-36.1378 37.734,-13.0843 72.0025,-13.0843 z"
         style="font-style:normal;font-variant:normal;font-weight:normal;font-stretch:normal;font-size:623.06494141px;line-height:1.25;font-family:Comfortaa;-inkscape-font-specification:Comfortaa;letter-spacing:0px;word-spacing:0px;writing-mode:lr-tb;fill:#000000;fill-opacity:1;stroke:#000000;stroke-width:0.84051269px;stroke-linecap:butt;stroke-linejoin:miter;stroke-opacity:1"
         id="path983-4" />
      <path
         inkscape:connector-curvature="0"
         d="m 2169.6157,1017.9701 q 46.1068,0 67.5384,21.8072 21.8339,21.1842 16.6041,59.1912 -4.6068,38.007 -35.9921,86.606 -6.438,9.9691 -16.6924,16.1997 -9.852,5.6076 -19.8211,5.6076 h -251.7182 q -28.0102,51.0913 -13.6397,82.8676 14.3705,31.7764 66.708,31.7764 22.4303,0 49.6891,-7.4768 28.2843,-8.0999 49.6369,-19.9381 12.1236,-6.2307 20.8465,-6.2307 6.8537,0 10.4884,4.9846 3.2714,7.4767 -2.7643,16.8227 -5.2308,8.0999 -16.1083,14.3305 -31.8277,17.4458 -71.2491,29.2841 -39.0191,11.2151 -68.3031,11.2151 -49.8452,0 -75.0151,-21.8072 -24.7676,-22.4304 -21.8484,-61.6835 3.9448,-39.8761 36.1348,-89.7213 32.5924,-50.4683 78.5031,-89.7214 46.9362,-39.8761 97.7801,-61.6834 51.8694,-22.4303 99.2224,-22.4303 z m -27.7639,42.9914 q -47.353,0 -97.4178,29.2841 -50.0648,29.284 -87.9015,77.26 h 228.0418 q 25.9984,-47.976 15.0029,-77.26 -10.9955,-29.2841 -57.7254,-29.2841 z"
         style="font-style:normal;font-variant:normal;font-weight:normal;font-stretch:normal;font-size:623.06494141px;line-height:1.25;font-family:Comfortaa;-inkscape-font-specification:Comfortaa;letter-spacing:0px;word-spacing:0px;writing-mode:lr-tb;fill:#000000;fill-opacity:1;stroke:#000000;stroke-width:0.84051269px;stroke-linecap:butt;stroke-linejoin:miter;stroke-opacity:1"
         id="path985-1" />
      <path
         sodipodi:nodetypes="ccccsssscssc"
         inkscape:connector-curvature="0"
         d="m 2193.045,519.73792 195.2422,-4.16397 -113.2267,147.38954 m -3585.4704,211.5626 c -309.8208,430.67961 62.1018,516.44641 416.93543,334.92571 410.1698,-209.82878 601.62093,-617.08501 259.20711,-687.47222 -136.473,-28.05366 -437.70544,49.3176 -548.46774,253.22395 -126.3359,232.57597 -73.0437,524.37657 303.32503,528.31187 l 898.201733,9.3916 c 574.206197,5.0219 571.455597,-154.0557 588.571397,-404.22698 14.8784,-217.46804 251.6007,-299.81745 490.70164,-292.81448 426.2159,12.48338 474.779,309.77068 1276.6215,-90.72978"
         style="opacity:0.79299999;fill:none;fill-opacity:1;fill-rule:evenodd;stroke:#a20000;stroke-width:65.70000458;stroke-linecap:round;stroke-linejoin:round;stroke-miterlimit:4;stroke-dasharray:none;stroke-dashoffset:0;stroke-opacity:1"
         id="path4182-6" />
    </g>
  </g>
</svg>
