<?xml version="1.0" encoding="UTF-8" standalone="no"?>
<!-- Created with Inkscape (http://www.inkscape.org/) -->

<svg
   xmlns:dc="http://purl.org/dc/elements/1.1/"
   xmlns:cc="http://creativecommons.org/ns#"
   xmlns:rdf="http://www.w3.org/1999/02/22-rdf-syntax-ns#"
   xmlns:svg="http://www.w3.org/2000/svg"
   xmlns="http://www.w3.org/2000/svg"
   xmlns:sodipodi="http://sodipodi.sourceforge.net/DTD/sodipodi-0.dtd"
   xmlns:inkscape="http://www.inkscape.org/namespaces/inkscape"
   width="13.724847mm"
   height="13.746746mm"
   viewBox="0 0 13.724847 13.746746"
   version="1.1"
   id="svg1919"
   inkscape:version="0.92.2 (5c3e80d, 2017-08-06)"
   sodipodi:docname="simulation.svg">
  <defs
     id="defs1913" />
  <sodipodi:namedview
     id="base"
     pagecolor="#ffffff"
     bordercolor="#666666"
     borderopacity="1.0"
     inkscape:pageopacity="0.0"
     inkscape:pageshadow="2"
     inkscape:zoom="1.979899"
     inkscape:cx="128.21062"
     inkscape:cy="34.297248"
     inkscape:document-units="mm"
     inkscape:current-layer="layer1"
     showgrid="false"
     fit-margin-top="0"
     fit-margin-left="0"
     fit-margin-right="0"
     fit-margin-bottom="0"
     inkscape:window-width="2400"
     inkscape:window-height="1271"
     inkscape:window-x="2391"
     inkscape:window-y="-9"
     inkscape:window-maximized="1" />
  <metadata
     id="metadata1916">
    <rdf:RDF>
      <cc:Work
         rdf:about="">
        <dc:format>image/svg+xml</dc:format>
        <dc:type
           rdf:resource="http://purl.org/dc/dcmitype/StillImage" />
        <dc:title></dc:title>
      </cc:Work>
    </rdf:RDF>
  </metadata>
  <g
     inkscape:label="Laag 1"
     inkscape:groupmode="layer"
     id="layer1"
     transform="translate(-68.695293,-146.00394)">
    <g
       id="g2703"
       transform="matrix(0.18671441,0,0,-0.18701224,-30.940867,175.88018)"
       style="stroke-width:1.50971425">
      <g
         transform="matrix(0.85333328,0,0,-0.85333328,232.88585,751.39988)"
         id="g1127"
         style="stroke:#1d8db0;stroke-width:1.50971425;stroke-opacity:1">
        <path
           sodipodi:nodetypes="ssssss"
           inkscape:connector-curvature="0"
           id="circle5534-7-5"
           d="m 436.6895,736.40386 c 2e-5,15.78857 -8.88407,29.50215 -21.92595,36.41451 -5.74736,3.04614 -12.30217,4.77141 -19.25995,4.77141 -22.74635,0 -41.1859,-18.43961 -41.18589,-41.18592 -10e-6,-22.74631 18.43954,-41.18591 41.18589,-41.18591 22.74635,0 41.18589,18.4396 41.1859,41.18591 z"
           style="fill:none;fill-opacity:1;stroke:#1d8db0;stroke-width:3.7694242;stroke-miterlimit:4;stroke-dasharray:none;stroke-opacity:1" />
        <g
           transform="matrix(0.0406505,0.01308415,-0.01308415,0.0406505,350.29519,684.66995)"
           id="_x23_170000ff"
           style="fill:#1d8db0;fill-opacity:1;stroke:#1d8db0;stroke-width:1.50971425;stroke-opacity:1">
          <path
             inkscape:connector-curvature="0"
             id="path87983"
             d="m 1282.8206,1245.4025 c 7.48,-0.42 14.88,-1.73 22.34,-2.49 -0.15,0.4401 -0.45,1.3101 -0.6,1.75 -6.5601,0.9401 -13.15,1.76 -19.7401,2.4401 -25.33,0.36 -50.68,0.24 -76.0099,0.5699 -13.5,0.95 -26.91,-1.36 -40.36,-2.04 0.55,-0.39 1.66,-1.1699 2.21,-1.5599 10.72,0.53 21.38,2.25 32.14,1.9099 26.67,-0.28 53.34,-0.36 80.02,-0.58 z m -366.91004,-25.51 c 9.18,3.63 18.81,5.97 27.9,9.87 20.5,8.42 40.87,17.26 62.00004,24.02 20.65,5.85 41.4,11.53 62.55,15.26 0.43,-0.17 1.29,-0.53 1.72,-0.71 l 0.52,-0.1001 c -0.36,0.8 -0.84,1.5601 -1.29,2.3301 0.83,0.4299 1.6899,0.87 2.56,1.33 l -1.21,-0.16 c -1.63,-0.24 -3.25,-0.45 -4.85,-0.75 -21.96,-4.87 -44.04,-9.47 -65.35,-16.7599 -13.08004,-2.92 -25.24004,-8.62 -37.75004,-13.27 -5.96,-2.1901 -11.65,-5.04 -17.32,-7.87 -10.04,-5.39 -21.29,-7.77 -31.78,-12.05 0.57,-0.2801 1.72,-0.8501 2.3,-1.1401 z M 1922.6306,949.39253 c 0.63,-0.02 1.9,-0.06 2.53,-0.08 -4.45,5.84 -9.72,11 -14.1,16.89 -6.98,9.3 -14.26,18.36 -21.29,27.6201 -9.12,12.19997 -16.4299,25.86997 -27.38,36.60997 -7.51,7.84 -14.45,16.2 -21.83,24.17 -4.85,5.13 -9.1901,10.78 -14.61,15.34 -14.9301,13.1 -29.25,26.93 -45.03,39.03 -9.7001,7.93 -19.52,15.71 -29.25,23.61 -5.53,4.69 -12,8.04 -17.88,12.25 -5.51,3.94 -11.54,7.05 -17.13,10.86 -16.79,11.22 -34.63,20.71 -52.02,30.95 -16.59,9.16 -33.45,17.84 -50.14,26.84 -10.22,4.9401 -20.6799,9.38 -30.97,14.16 -10.64,4.84 -21.96,7.8101 -32.89,11.88 -11.1,3.7001 -21.83,8.38 -32.74,12.5701 -7.85,2.8999 -15.35,6.8999 -23.63,8.45 -13.02,2.9 -26.04,5.8199 -39.04,8.79 -20.4399,4.35 -40.62,10.0299 -61.34,12.9399 -11.33,1.88 -22.64,4.03 -34.1,4.87 -16.01,1.23 -31.95,3.28 -48,3.91 -13.33,0.22 -26.63,1.13 -39.96,1.29 -9.01,0.1699 -17.98,-0.7301 -26.96,-1.1101 -11.8701,-0.9299 -23.79,-1.1499 -35.64,-2.25 -0.15,-0.2799 -0.45,-0.85 -0.61,-1.1399 0.66,-1.79 3.69,-0.3 5.22,-0.7201 26.64,1.1801 53.31,1.4 79.98,1.4401 13.67,-0.22 27.31,-1.1 40.98,-1.51 17.68,-1.9 35.31,-4.28 52.98,-6.23 13.89,-2.5901 27.65,-5.8 41.5,-8.64 20.5,-4.5601 41.17,-8.4301 61.5,-13.72 18.61,-3.88 34.92,-14.4401 53.1899,-19.4 9.88,-3.0701 19.9801,-5.53 29.52,-9.6 34.9701,-15.9401 68.9401,-33.9401 102.65,-52.3501 18.26,-9.6 35.6901,-20.6899 53.14,-31.6799 7.17,-4.36 13.36,-10.09 20.14,-15.01 22.13,-17.13 43.97,-34.66 65.24,-52.83 14.08,-14.54 28.21,-29.06 42.03,-43.85 5.12,-5.94 10.0299,-12.06 15.23,-17.94 11.72,-14.77 19.79,-32.24997 32.96,-45.88997 6.1801,-6.6201 11.5802,-13.9001 17.7501,-20.5201 m -663.05,340.93997 c 6.4,0.5299 12.84,0.3099 19.25,-0.04 -6.41,-0.3199 -12.85,-0.58 -19.25,0.04 z M 879.27056,1162.2324 c 6.77,-3.3499 14.78,-2.4 21.6,0.3101 28.23,11.8199 56,24.71 83.87,37.33 10,4.9 19.67004,10.4301 29.70004,15.28 9.83,4.11 20.19,6.78 30.1,10.6801 3.62,1.34 7.48,1.71 11.28,2.27 6.04,0.84 12.01,2.1 17.9901,3.34 -1.0601,8.34 -6.29,15.74 -5.88,24.3199 0.2,4.24 -0.92,9.04 2.15,12.5701 -0.43,0.1799 -1.29,0.5399 -1.72,0.71 -21.15,-3.73 -41.9,-9.41 -62.55,-15.26 -21.13004,-6.76 -41.50004,-15.6 -62.00004,-24.02 -9.09,-3.9 -18.72,-6.24 -27.9,-9.87 -7.03,-4.77 -15.73,-5.83 -22.74,-10.59 -9.71,-5.45 -17.69,-13.67 -23.6,-23.02 -0.62,-5.01 -1.85,-10.91 1.45,-15.25 2.2999,-3.31 4.9199,-6.4901 8.2499,-8.8002 z M 2028.0206,767.90253 c 6.76,-3.23 14.2,-5.52 21.75,-5.62 5.1,0.71 9.85,3.53 13.4401,7.18 3.48,4.35 2.2,10.25 1.13,15.23 -1.7301,7.27 -2.1901,15.04 -6.1101,21.61 -10.75,19.45 -18.7699,40.35 -30.84,59.06 -15.75,26.46 -31.84,52.72 -48.1899,78.81 -10.62,14.72 -21.2001,29.49 -32.0601,44.04 -23.83,28.79997 -48.03,57.30997 -71.97,86.01997 -11.6901,12.66 -23.23,25.45 -35.04,38 -15.8099,13.83 -31.4199,27.89 -47.34,41.6 -13.92,10.46 -28.1801,20.48 -42.21,30.79 -6.2101,4.77 -13.38,8.01 -20.14,11.88 -17.04,9.24 -33.86,18.87 -51,27.92 -18.38,9.24 -36.7101,18.58 -55.12,27.76 -11.8101,5.28 -23.73,10.3199 -35.61,15.4399 -15.4601,7.0601 -31.5901,12.4801 -47.3601,18.79 -13.0199,5.35 -26.72,8.72 -40.1899,12.72 -8.72,2.28 -17.1901,5.5 -26.0699,7.13 -23.53,4.41 -47.0601,8.86 -70.5901,13.3201 -7.55,1.3099 -15.1899,2.02 -22.77,3.1799 -14.94,1.97 -29.87,4.27 -44.95,4.9 -22.97,1.83 -45.98,3.03 -68.99,4.0601 -13.65,1.1 -27.3,-0.52 -40.96,-0.42 -13.89,-0.85 -27.83,-0.61 -41.68,-2.09 -9.7,-1.0601 -19.47,-1.37 -29.14,-2.65 -18.31,-3.03 -36.65,-5.9 -54.98,-8.8301 -8.42,-1.08 -16.59,-3.4199 -24.83,-5.35 -11.48,-2.8099 -22.95,-5.65 -34.42,-8.4399 -22.41,-5.22 -44.23004,-12.5801 -66.37004,-18.79 -21.61,-6.99 -43.17,-14.16 -64.73,-21.3199 -11.09,-4.27 -21.8,-9.49 -32.78,-14.05 -2.31,-0.9 -4.47,-2.24 -5.84,-4.35 -2.3,-3.3 -5.07,-6.3101 -6.98,-9.86 -1.24,-4.4301 -1.57,-9.3201 -0.42,-13.8 2.73,-4.13 7.33,-6.5599 11.74,-8.51 5.84,-2.6699 12.39,-0.89 18.37,0.3101 6.71,1.26 12.6,4.87 18.84,7.46 10.49,4.28 21.74,6.66 31.78,12.05 5.67,2.83 11.36,5.6799 17.32,7.87 12.51,4.65 24.67,10.35 37.75004,13.27 21.31,7.2899 43.39,11.8899 65.35,16.7599 1.6,0.3 3.22,0.51 4.85,0.75 11.69,1.89 23.38,3.88 34.94,6.5 6.33,1.4901 12.83,2.05 19.17,3.51 13.24,1.79 26.62,2.2101 39.9,3.5901 11.41,0.59 22.67,2.8199 34.11,2.96 2.55,-0.08 5.41,0.6899 7.76,-0.62 0,-0.23 -0.01,-0.6801 -0.01,-0.91 -9.83,-0.9199 -19.71,-1.22 -29.53,-2.2899 -17.11,-1.4501 -34.1299,-3.8301 -51.25,-5.2201 -5.03,-0.58 -10.24,-0.64 -14.98,-2.63 4.45,-3.8099 9.01,-7.5599 13.01,-11.83 4.27,-7.05 6.54,-15.0699 9.47,-22.72 10.5,1.33 21.0601,2.1599 31.6,3.1699 1.85,0.39 3.53,-0.49 5.19,-1.1899 0.16,0.01 0.47,0.02 0.62,0.02 -0.55,0.39 -1.66,1.1699 -2.21,1.5599 13.45,0.6801 26.86,2.99 40.36,2.04 25.33,-0.33 50.68,-0.21 76.0099,-0.5699 6.59,-0.6801 13.18,-1.5 19.7401,-2.4401 27.2,-2.96 54.17,-7.5599 81.22,-11.64 12.45,-1.84 24.73,-4.61 37.1,-6.9299 18.78,-3.37 37,-9.14 55.51,-13.6901 14.1901,-3.77 28.0601,-8.62 42.1,-12.88 10.66,-3.02 20.6001,-8.01 30.86,-12.1 17.25,-7.41 34.88,-13.99 51.7101,-22.36 16.7,-7.99 33.4,-15.99 50.1,-24 11.96,-6.37 23.83,-12.9 35.8,-19.24 6.5699,-3.69 13.5499,-6.72 19.62,-11.2401 16.13,-12.2 32.51,-24.08 48.6599,-36.2599 8.42,-6.9 16.76,-13.92 25.1801,-20.83 5.04,-4.32 10.48,-8.18 15.0499,-13.02 11.2201,-11.78 23.2001,-22.86 33.51,-35.48 7.5701,-8.47997 14.99,-17.09997 21.8,-26.20997 2.21,-3.24 6.05,-4.54 9,-6.93 2.95,-2.36 5.95,-4.71 8.47,-7.55 6.5601,-8 12.91,-16.35 17.1,-25.88 1.5601,-4.53 3.6901,-8.82 5.9301,-13.05 1.76,-3.26 2.9,-6.93 5.41,-9.72 8.75,10.69 14.3199,23.71 23.9399,33.74 -6.1699,6.62 -11.5699,13.9 -17.75,20.52 -13.1699,13.64 -21.24,31.11997 -32.96,45.88997 -5.2001,5.88 -10.11,12 -15.23,17.94 -13.8201,14.79 -27.9501,29.31 -42.03,43.85 -21.27,18.17 -43.11,35.7 -65.24,52.83 -6.78,4.92 -12.97,10.65 -20.14,15.01 -17.45,10.99 -34.88,22.08 -53.14,31.6799 -33.71,18.41 -67.6799,36.41 -102.65,52.3501 -9.5399,4.0699 -19.64,6.5299 -29.52,9.6 -18.2699,4.96 -34.58,15.52 -53.1899,19.4 -20.33,5.2899 -41,9.1599 -61.5,13.72 -13.85,2.84 -27.61,6.0499 -41.5,8.64 -17.67,1.95 -35.3,4.33 -52.98,6.23 -13.67,0.41 -27.31,1.29 -40.98,1.51 -26.67,-0.04 -53.34,-0.26 -79.98,-1.4401 -1.53,0.42 -4.56,-1.0699 -5.22,0.7201 0.16,0.2899 0.46,0.86 0.61,1.1399 11.85,1.1001 23.77,1.3201 35.64,2.25 8.98,0.38 17.95,1.28 26.96,1.1101 13.33,-0.16 26.63,-1.0701 39.96,-1.29 16.05,-0.63 31.99,-2.6801 48,-3.91 11.46,-0.84 22.77,-2.99 34.1,-4.87 20.72,-2.91 40.9,-8.59 61.34,-12.9399 13,-2.9701 26.02,-5.89 39.04,-8.79 8.28,-1.55 15.78,-5.55 23.63,-8.45 10.91,-4.1901 21.64,-8.87 32.74,-12.5701 10.9301,-4.0699 22.25,-7.04 32.89,-11.88 10.29,-4.78 20.75,-9.22 30.97,-14.16 16.6901,-9 33.55,-17.6799 50.14,-26.84 17.39,-10.24 35.23,-19.73 52.02,-30.95 5.59,-3.81 11.62,-6.92 17.13,-10.86 5.88,-4.21 12.35,-7.56 17.88,-12.25 9.73,-7.9 19.5499,-15.68 29.25,-23.61 15.78,-12.1 30.1,-25.93 45.03,-39.03 5.4199,-4.56 9.76,-10.21 14.61,-15.34 7.38,-7.97 14.3199,-16.33 21.83,-24.17 10.9501,-10.74 18.26,-24.41 27.38,-36.60997 7.03,-9.26 14.3101,-18.32 21.29,-27.6201 4.38,-5.89 9.65,-11.05 14.1,-16.89 3.59,-4.43 7.52,-8.56 11.27,-12.86 4.34,-4.8799 7.77,-10.47 11.5599,-15.77 3.23,-4.47 4.9301,-9.78 7,-14.84 3.9,-11.07 9.9501,-21.15 15.2101,-31.59 7.7799,-15.03 16.23,-29.69 24.2999,-44.56 11.41,-20.46 21.95,-41.48 33.52,-61.79 z m -33.2,-1.95 c 2.9399,-1.75 5.85,-3.64 9.09,-4.84 5.05,-1.45 10.66,-0.13 15.05,2.63 2.13,2.21 2.8899,5.38 4.2599,8.09 -4.2799,8.09 -9.3099,15.75 -13.47,23.9 -11.1799,20.89 -21.87,42.03 -33.34,62.76 -7.65,14.13 -16.61,27.6 -22.77,42.49 -0.52,1.22 -1.02,2.46 -1.49,3.7 0.61,-3.75 2.3,-8.37 -0.88,-11.42 -6.66,-7.46 -12.5699,-15.83 -20.61,-21.8799 5.54,-9.44 10.88,-19.01 16.28,-28.54 8.59,-15.33 16.1,-31.32 26.01,-45.88 4.62,-7.05 9.13,-14.18 13.7799,-21.22 2.3502,-3.5001 4.2602,-7.6301 8.0902,-9.7901 z m -889.22,512.27987 c 1,-0.83 2.02,-1.6399 3.09,-2.3899 0.52,0.1899 1.56,0.58 2.08,0.7799 4.74,1.99 9.95,2.05 14.98,2.63 17.1201,1.39 34.14,3.77 51.25,5.2201 9.82,1.0699 19.7,1.37 29.53,2.2899 0,0.23 0.01,0.6801 0.01,0.91 -2.35,1.3099 -5.21,0.54 -7.76,0.62 -11.44,-0.14 -22.7,-2.37 -34.11,-2.96 -13.28,-1.38 -26.66,-1.8 -39.9,-3.5901 -6.34,-1.4598 -12.84,-2.0197 -19.17,-3.5099 z m 897.67,-519.06987 c 5.05,-0.6 10.36,-0.5 14.92,2.09 3.99,0.99 4.34,5.69 6.22,8.7 0.87,-1.25 1.39,-2.87 2.66,-3.8 7.5299,-2.99 15.34,-5.8 23.5699,-5.7 5.42,1.29 10.3,4.22 14.36,7.9901 1.27,3.27 3.38,6.69 2.25,10.31 -1.64,7.88 -2.86,15.89 -5.0399,23.64 -8.9701,16.9 -17.1101,34.21 -25.7001,51.3 -11.48,19.08 -22.8199,38.24 -34.5599,57.16 -9.5801,15.07 -18.13,30.82 -28.99,45.04 -10.98,14.6699 -20.95,30.1399 -33.1,43.8999 -14.2799,17.06997 -28.5499,34.13997 -42.86,51.18997 -9.7899,11.56 -19.23,23.44 -29.6799,34.43 -8.4701,9.17 -16.75,18.51 -25.3501,27.55 -14.6599,13.02 -29.4299,25.92 -44.12,38.91 -5.37,5 -11.61,8.89 -17.4399,13.29 -10.88,7.89 -21.75,15.8 -32.64,23.67 -7.37,4.4199 -15.04,8.33 -22.51,12.5599 -18.12,9.77 -35.87,20.26 -54.37,29.3201 -16.03,7.99 -31.91,16.2999 -48.02,24.13 -19.96,8.3899 -39.5599,17.6599 -59.88,25.1599 -10.72,4.1001 -21.4299,8.24 -32.1599,12.29 -14.3,4.3101 -28.6801,8.34 -42.99,12.58 -5.5901,1.78 -11.3101,3.05 -17.0901,4 -22.65,4.26 -45.28,8.5701 -67.9399,12.77 -12.98,1.92 -26.01,3.47 -39,5.28 -11.98,1.85 -24.11,2.2 -36.17,3.1801 -16.25,1.3199 -32.53,1.99 -48.8,2.8799 -9.04,0.25 -18.08,1.3 -27.13,0.77 -24.96,-0.98 -50,-0.89 -74.87,-3.49 -8.19,-0.7999 -16.49,-0.9099 -24.53,-2.7899 1.23,-0.3101 2.46,-0.62 3.7,-0.91 9.67,1.28 19.44,1.59 29.14,2.65 13.85,1.48 27.79,1.24 41.68,2.09 13.66,-0.1 27.31,1.52 40.96,0.42 23.01,-1.03 46.02,-2.2301 68.99,-4.0601 15.08,-0.63 30.01,-2.9301 44.95,-4.9 7.58,-1.1599 15.22,-1.87 22.77,-3.1799 23.53,-4.4601 47.0601,-8.91 70.5901,-13.3201 8.8799,-1.63 17.35,-4.85 26.0699,-7.13 13.47,-4 27.17,-7.37 40.1899,-12.72 15.77,-6.3099 31.9,-11.73 47.3601,-18.79 11.88,-5.12 23.7999,-10.1599 35.61,-15.4399 18.4099,-9.1801 36.74,-18.52 55.12,-27.76 17.14,-9.05 33.96,-18.6801 51,-27.92 6.76,-3.87 13.9299,-7.11 20.14,-11.88 14.0299,-10.3099 28.2899,-20.33 42.21,-30.79 15.92,-13.71 31.53,-27.77 47.34,-41.6 11.8101,-12.55 23.35,-25.34 35.04,-38 23.9399,-28.71 48.14,-57.22 71.97,-86.01997 10.86,-14.55 21.4401,-29.32 32.0601,-44.04 16.35,-26.09 32.4399,-52.35 48.1899,-78.81 12.0701,-18.71 20.09,-39.61 30.84,-59.06 3.92,-6.57 4.38,-14.34 6.1101,-21.61 1.0699,-4.98 2.35,-10.88 -1.13,-15.23 -3.5901,-3.65 -8.3401,-6.47 -13.4401,-7.18 -7.55,0.1 -14.99,2.39 -21.75,5.62 -11.5699,20.31 -22.11,41.33 -33.52,61.79 -8.0699,14.87 -16.52,29.53 -24.2999,44.56 -5.26,10.44 -11.3101,20.52 -15.2101,31.59 -0.47,-1.63 -0.9199,-3.25 -1.35,-4.86 6.16,-14.89 15.12,-28.36 22.77,-42.49 11.47,-20.73 22.16,-41.87 33.34,-62.76 4.16,-8.15 9.1901,-15.81 13.47,-23.9 -1.37,-2.71 -2.1299,-5.88 -4.2599,-8.09 -4.39,-2.76 -10,-4.08 -15.05,-2.63 -3.24,1.2 -6.15,3.09 -9.09,4.84 -3.8301,2.16 -5.74,6.29 -8.0901,9.79 -4.6499,7.04 -9.1599,14.17 -13.7799,21.22 -9.91,14.56 -17.42,30.55 -26.01,45.88 -5.4,9.53 -10.74,19.1 -16.28,28.54 -0.41,-0.2401 -1.24,-0.73 -1.66,-0.98 10.51,-17.23 19.9301,-35.1 29.5801,-52.81 7.88,-15.33 18.1499,-29.23 27.3099,-43.78 2.27,-2.99 3.58,-7.02 7.1,-8.84 3.4397,-1.9 6.7497,-4.04 10.2797,-5.81 z m -959.53,-69.76 c 2.69,-1.36 5.31,-2.86 7.84,-4.5 1.13,2.48 2.35,4.92 3.68,7.31 -2.02,1.25 -3.98,2.71 -6.3,3.32 -2.27,-1.54 -3.91,-3.77 -5.22,-6.13 z m -165.08004,23.46 c 3.51,0.45 6.99,1.05 10.48,1.64 -0.86,5.47 -4.35,9.74 -7.21,14.28 -2.57,-1.45 -5.29,-2.59 -8.12,-3.39 1.69,-4.15 3.58,-8.23 4.85,-12.53 z m 171.39004,-15.84 c 2.22,-1.15 4.45,-2.28 6.68,-3.42 4.7,6.36 10.41,12.04 14.21,19.03 -7.76,-4.03 -14.73,-9.44 -20.89,-15.61 z m 28.09,516.86997 c 0.67,0.07 2,0.2101 2.67,0.28 -1.6801,5.34 -3.96,10.48 -5.89,15.73 -1.74,-0.34 -3.46,-0.65 -5.18,-0.99 1.16,-0.1899 2.27,-0.42 3.46,-0.54 0.95,-5.06 1.84,-10.23 4.94,-14.48 z m 181.44,76.44 c 6.4,-0.62 12.84,-0.36 19.25,-0.04 -6.41,0.35 -12.85,0.5699 -19.25,0.04 z M 994.86056,595.85253 c 4.41,5.82 10.06004,10.72 13.68004,17.12 5.84,12.31 9.36,25.55 12.79,38.69 -0.52,-0.01 -1.57,-0.04 -2.09,-0.06 -8.96,-18.21 -16.7,-36.98 -24.38004,-55.75 z m -100.79,101.71 c 2.31,0.29 4.65,0.47 6.98,0.67 -1.35,2.89 -3.58,5.24 -6.06,7.2 -0.35,-2.62 -0.62,-5.25 -0.92,-7.87 z m -9.18,-10.79 c -0.82,-1.41 -0.47,-2.92 0.17,-4.28 0.94,6.39 5.98,12.35 12.75,12.5 1.86,0.35 4.37,-1.4 5.6299,0.72 -7.3199,2.43 -16.0799,-1.53 -18.5499,-8.94 z m 26.72,-7.6 c 1.34,-0.85 2.69,1.34 1.55,2.28 -1.36,0.89 -2.89,-1.37 -1.55,-2.28 z m -20.07,-9.47 c 2.53,-2.11 6.71,-3.3199 9.66,-1.48 -3.2,0.61 -6.41,1.2 -9.66,1.48 z m 105.37,-89.14 c -0.24,-2.35 -0.8,-4.84 0.23,-7.09 0.59,2.25 2.04,5.25 -0.23,7.09 z m -27.35,1.43 c -0.7,-3.51 -0.97,-8.13 2.0699,-10.64 -0.31,2.79 -1.37,5.51 -1.09,8.36 0.2,2.74 1.73,5.1 2.77,7.57 -2.5199,-0.29 -2.9499,-3.36 -3.7499,-5.29 z m -67.49,107.02 c 1.4901,-2.86 3.66,-5.29 5.53,-7.9 7.53,1.65 11.53,8.64 16.73,13.61 -4.14,4.09 -8.27,8.19 -12.33,12.35 -3.45,-4.03 -5.52,-8.95 -8.0699,-13.54 -0.7301,-1.46 -1.6401,-2.89 -1.8601,-4.52 z m 91.22,-106.74 c 1.83,-2.44 4.8,-0.07 6.54,1.33 6.93004,6.33 11.68004,14.59 16.59004,22.49 7.72,11.74 9.73,26.14 17.22,38.01 -3.58,1.97 -7.31,3.67 -11.05,5.3 -2.61,-8.88 -4.84,-17.88 -8.13,-26.55 -2.13,-5.51 -4.08,-11.26 -7.91,-15.87 -4.4,-5.59 -9.77004,-10.49 -13.27004,-16.75 -1.19,-2.37 -2.22,-5.87 0.01,-7.96 z m 216.12004,-13.3 c 3.08,0.92 6.36,2.65 7.51,5.87 0.87,3.58 -0.25,7.24 -0.74,10.81 -1.54,10.04 -4.26,19.84 -5.9,29.86 -3.07,18.08 -8.95,35.58 -16.23,52.38 -5.85,14.29 -15.74,26.66 -27.33,36.7401 -15.77,13.5699 -34.92,22.93 -55.01,28.11 -11.15,2.83 -23.13,2.01 -33.87,-2.06 -18.18,-6.63 -33.05,-20.02 -44.92,-34.99 -10.03,-13.23 -17.89,-27.97 -25.08,-42.9 -9.13004,-19.59 -16.33004,-40.07 -21.89004,-60.95 1.39,-0.61 2.78,-1.23 4.19,-1.82 8.9,19.13 16.08004,39.05 25.45004,57.98 7.18,14.56 15.21,28.82 25.43,41.48 9.99,12.3 22.6,22.96 37.7,28.3 18.56,6.34 39.46,4.39 57.08,-3.93 15.23,-7.01 27.99,-18.54 38.24,-31.67 9.5,-12.29 17.36,-25.97 22.23,-40.76 7.97,-23.3701 9.33,-48.2201 13.14,-72.4501 z m -223.86004,-1.67 c 0.22,-0.03 0.64,-0.08 0.85,-0.1 -1.13,1.83 -2.24,3.66 -3.32,5.52 4.27,1.43 8.22,3.68 12.54,5 -1.1201,1.51 -2.67,2.59 -3.97,3.92 -1.44,1.71 -1.2,4.05 -1.35,6.13 -2.42,1.47 -5.2,2.07 -8.01,2.01 -1.74,-2.88 -5.04,-3.4 -7.88,-4.6 -2.61,-3.29 -2.55,-7.68 -1.56,-11.54 1.55,0.91 2.86,2.54 4.62,2.94 2.99,-2.81 5.69,-5.95 8.08,-9.28 z m 1.22,-3.09 c 3.31,0.06 -1.42,3.07 0,0 z m -4.06,107.73 c 2.62,-1.08 5.26,-2.11 7.93,-3.08 5.9,7.06 10.74004,15.33 18.39004,20.7 5.73,4.03 12.99,3.79 19.66,3.9 2.71,2.15 4.46,5.23 6.26,8.14 -9.15,2.53 -19.2,1.93 -27.86,-1.99 -11.21004,-5.85 -18.57004,-16.82 -24.38004,-27.67 z m -49.17,-143.3 c 4.13,1.28 8.21,2.96 11.53,5.82 7.05,5.76 14.62,10.82 22.17,15.91 6.39,4.2 11.63,9.83 17.57,14.61 -1.8701,3.71 -4.8,6.68 -7.82,9.45 -6.6,-4.93 -12.3,-10.89 -18.13,-16.68 -7.1,-6.68 -16.01,-11.15 -22.95,-18 -3.16,-2.77 -2.38,-7.37 -2.37,-11.11 z m 500.36004,208.26 c 4.34,-1.6 7.5601,-5.1 11.63,-7.21 2.48,10.33 4.83,20.71 7.55,30.99 8.87,21.94 17.6,43.96 27.4199,65.5 2.03,4.26 4.98,8.01 7.1,12.23 -7.5399,4.5 -14.6699,9.66 -22.4199,13.8 -8.27,5.2 -17.3301,8.92 -26.38,12.5 -6.47,-18.91 -11.8101,-38.21 -19.12,-56.82 -7.52,-19.48 -15.11,-38.99 -20.95,-59.05 11.71,-3.99 23.67,-7.32 35.17,-11.94 z m -588.77004,-83.94 c 6.01,-0.03 12.03,0.78 17.79,2.51 3.85,1.23 7.25,3.48 10.87,5.23 6.43,3.38 13.44,5.95 18.73,11.13 -4.11,3.58 -7.45,7.88 -10.57,12.31 -4.75,-2.47 -9.21,-5.59 -14.43,-7.03 -8.84,-3.44 -18.21,-5.1 -27.24,-7.87 2.77,-5.04 4.69,-10.48 4.85,-16.28 z m 108.1,-36.62 c 7.02,-9.82 13.77,-19.85 21.58,-29.08 3.12,0.79 6.4399,2.52 7.7,5.66 0.81,4.86 -2,9.28 -4.38,13.27 -3.54,5.09 -6.59,10.57 -10.93,15.05 -5.65,6.08 -10.67,12.7 -15.85,19.17 -5.56,6.35 -12.11,11.75 -17.87,17.91 -4.36,4.7 -8.93,9.18 -13.3,13.87 -2.31,2.4 -4.95,4.96 -8.41,5.4 -3.75,-1.09 -6.9,-3.62 -10.05,-5.83 -1.44,-0.65 -0.36,-2.1299 0.48,-2.71 2.93,-2.68 6.27,-4.88 9.11,-7.67 7.61,-7.77 15.18,-15.59 22.0099,-24.06 6.0001,-7.59 13.5401,-13.74 19.9101,-20.98 z m 52.58004,-81.58 c 0.8,-1.7 2.33,-2.87 3.7,-4.09 2.12,2.94 4.61,5.74 5.98,9.14 -3.35,7.85 -8.11,15.11 -11.97,22.75 -2.35,4.82 -5.87004,8.98 -9.85004,12.54 -2.81,-0.69 -5.33,-2.15 -7.91,-3.4 3.88,-6.64 8.18,-13.02 12.21,-19.57 3.12004,-5.55 5.01004,-11.68 7.84004,-17.37 z m 465.17,-48.76 c 5.92,-1.78 12.3501,-0.3 17.4601,3.01 7.0499,4.1 11.51,11.78 12.5,19.77 1.5399,11.74 -1.5901,23.5 -5.6901,34.41 -6.09,15.22 -14.3099,29.63 -24.5599,42.43 -3.36,4.35 -8.35,7.8 -9.51,13.5 -2.03,8.41 -1.02,17.25 0.4399,25.68 1.12,6.49 2.7201,12.91 5.23,19.01 4.8,12.02 5.5,25.23 4.2301,37.99 -1.51,11.94 -5.4601,23.75 -12.9601,33.3 -7.84,10.15 -18.9399,17.28 -30.5699,22.36 -19.13,6.71 -39.08,14.43 -59.74,11.64 -8.89,-1.2 -17.5601,-3.8 -25.79,-7.36 -7.25,-3.22 -10.87,-10.92 -13.27,-18.02 -4.16,-12.66 -5.1,-26.04 -8.12,-38.97 -1.83,-8.02 -3.56,-16.08 -6.13,-23.9 -1.73,-5.59 -3.24,-11.79 -8.11,-15.55 -10.41,-8.3 -25.11,-6.62 -36.01,-13.98 -19.34,-12.01 -36.93,-29.05 -44.0699,-51.19 -1.54,-4.06 -1.34,-9.57 2.66,-12.14 5.52,-3.47 12.39,-3.89 18.75,-3.46 24.27,2.77 49.23,4.49 73.21,-1.36 17.37,-4.38 34.69,-9.04 51.85,-14.21 9.78,-3.03 19.64,-5.96 29.03,-10.09 14.87,-6.29 27.98,-16.32 38.63,-28.4 8.7498,-9.62 17.6898,-20.41 30.5398,-24.47 z m -567.43004,210.74 c 2.41,4 4.47,8.23 7.45,11.87 -3.16,3.75 -2.4,9.01 -3.95,13.42 -1.55,4.34 -2.64,8.97 -5.33,12.8 -3.31,4.9 -6.63,9.83 -10.5,14.3 -6.61,3.33 -14.4,4.52 -21.68,2.96 -3.83,-0.65 -5.24,-4.64 -6.54,-7.76 4.27,0.16 8.86,-0.38 12.23,-3.2599 4.36,-3.09 6.76,-8.02 9.04,-12.69 1.55,-3.28 4.44,-5.86 5.33,-9.45 1.07,-3.18 1.51,-6.92 4.2,-9.22 2.12,-2.14 4.21,-4.32 6.49,-6.3 2.11,-1.5801 2.41,-4.3701 3.26,-6.6701 z m -8.16,-26.14 c 2.8,-0.12 4.69,2.2 6.88,3.57 2.6,2.03 5.89,3.24 7.96,5.91 -0.85,-0.27 -2.55,-0.79 -3.41,-1.05 -2.2599,3.32 -4.58,6.6 -6.99,9.82 0.63,1.41 1.26,2.82 1.89,4.25 -2.15,0.44 -4.05,-0.37 -5.81,-1.49 -1.41,-1.07 -3.29,-0.34 -4.79,-1.07 -2.98,-2.47 -4.6,-6.56 -3.88,-10.39 1.79,-3.96 6.65,-5.47 8.15,-9.55 z m -56.23,0.41 c 11.15,2.51 22.28,5.32 32.91,9.57 3.66,1.91 7.11,4.2 10.84,5.98 1.1,2.56 2.55,4.96 4.35,7.09 -3.33,2.54 -4.42,6.66 -6.31,10.18 -5.23,8.57 -5.88,19.56 -13.01,27.03 -3.43,3.63 -5.78,8.7 -10.91,10.23 -4.33,2.65 -9.5,1.95 -14.32,2.01 -1.82,-1.56 -3.75,-3.02 -5.34,-4.81 -2.33,-2.74 -3.47,-6.5 -6.62,-8.49 -4.96,-3.32 -9.52,-7.22 -13.8,-11.36 -3.58,-4.9 -7.67,-11.71 -4.21,-17.7 1.15,-3.72 5.05,-4.99 7.98,-6.97 8.42,-5.41 13.52,-14.33 18.44,-22.76 m -7.87,23.16 c -2.61,5.02 -1.98,10.73 -0.71,16.02 l 1.61,-0.17 c -0.84,-4.34 -1.87,-8.97 -0.14,-13.24 1.24,-4.29 4.58,-7.38 8.16,-9.8 -4.68,-0.92 -6.98,3.87 -8.92,7.19 m 14.17,11.3 c -1.58,2.18 -1.79,4.96 -2.47,7.51 2.24,-0.96 4.34,-2.29 6.69,-2.95 3.11,-0.55 6.32,-0.44 9.37,-1.35 0.08,-1.58 0.39,-3.16 0.16,-4.72 -1.26,-2.97 -4.67,-3.49 -7.42,-4.21 -2.3,1.67 -4.76,3.28 -6.33,5.72 z m 139.15,-110.98 c 3.7,10.91 6.65,22.11 10.82,32.88 3.73,10.22 8.19004,20.14 12.62004,30.06 -7.13,3.67 -13.67004,8.54 -21.32004,11.13 -5.77,2.21 -11.56,4.39 -17.26,6.81 -12.22,5.39 -25.07,9.12 -37.59,13.73 -2.35,0.96 -4.12,2.88 -6.04,4.47 -3.27,-3.32 -6.6,-6.57 -9.77,-9.98 -1.44,-1.21 -1.37,-3.18 -1.74,-4.84 3.91,-1.59 6.47,-5.02 9.38,-7.9 7.79,-7.95 15.41,-16.06 23.51,-23.7 6.5,-5.88 11.12,-13.42 16.91,-19.93 3.35,-4 7.1801,-7.61 10.02,-12.01 4.24,-6.46 9.49,-12.77 10.46,-20.72 z m 235.89004,-15.6 c 1.25,0.08 2.5,0.17 3.77,0.26 6.76,23.15 24.99,40.82 44.85,53.41 9.87,6.83 22.66,6.19 33.04,11.86 3.82,2.03 6.9,5.43 8.32,9.55 5.04,14.26 8.28,29.1 11,43.97 1.92,10.36 3.22,21 7.33,30.8 2.56,5.87 6.2599,11.84 12.36,14.53 11.89,4.93 24.65,8.45 37.63,8.06 6.05,-0.02 12,-1.19 17.91,-2.32 5.95,17.78 11.95,35.55 18.89,52.98 8.42,20.87 14.76,42.49 21.7001,63.89 -7.8301,3.46 -14.87,9.16 -23.6,10.15 -14.02,2.67 -27.9901,5.63 -42.03,8.17 -10.94,1.54 -21.76,4.14 -32.84,4.52 -12.97,0.65 -25.93,2.36 -38.94,1.73 -5.03,-0.14 -10.05,-0.28 -15.06,-0.4 -1.06,3.57 -1.63,7.29 -2.93,10.79 -3.28,5.86 -7.41,11.21 -12.26,15.86 -6.62,7.86 -15.81,12.76 -23.47,19.46 -5.99,5.3 -12.62,9.95 -17.82,16.09 -12.67,14.35 -27.06,27.08 -39.39,41.75 -3.28,4.13 -7.99,7.58997 -8.73,13.18997 -1.39,9.56 2.54,20.25 -2.93,29.03 -3.5,8.11 -9.58,14.65 -13.74,22.38 -2.26,4.28 -5.39,8.21 -6.4301,13.04 -3.35,11.72 -5.24,23.78 -7.38,35.76 -0.8799,13.44 -0.75,26.96 -2.5699,40.33 -2.5,19.6 -3.04,39.3701 -3.78,59.1 -0.13,3.6 -2.15,6.73 -3.33,10.0499 -0.87,3.38 -4.44,4.54 -7.04,6.28 -9.72,-2.8199 -19.5,-5.47 -29.23,-8.22 -7.89,-2.39 -16.21,-0.64 -24.19,-2.48 0.59,-5.01 0.67,-10.0801 1.68,-15.02 1.4,-5.26 2.94,-10.48 4.38,-15.72 -8.68,-5.39 -19.21,-5.26 -28.93,-7.05 -7.45,-1.35 -13.67,-6.1 -18.43,-11.78 3.29,-9.08 7.92,-17.56 12.2,-26.19 6.48,-12.52 11.85,-25.59 16.33,-38.95 3.79,-10.08 6.67,-20.48 9,-30.98 0.92,-9.28 1.64,-18.59 1.86,-27.91 -0.54,-7.35 -2.01,-14.68 -1.65,-22.07 0.59,-5.56 1.23,-11.11 2.22,-16.6 4.31,-13.68997 14.95,-23.97997 21.14,-36.70997 5.28,-10.9 10.06,-22.03 15.02,-33.07 4.08,-11.13 7.61,-22.45 11.74,-33.56 2.52,-7.38 5.66,-14.57 7.35,-22.2 1.06,-3.92 1.75,-7.94 3.08,-11.77 1.46,-2.67 3.69,-4.79 5.56,-7.17 3.79,1.56 6.08,5.82 10.2,6.44 -2.74,-4.28 -7.51,-6.37 -11.35,-9.39 -3.39,-5.11 -8.43,-9.6 -9.36,-15.9399 -3.3,-14.47 -6.94,-28.86 -10.7,-43.22 -1.5,-4.86 -3.94,-9.37 -5.86,-14.07 -2.56,-5.41 -4.33,-11.25 -7.9,-16.12 -6.44,-9.44 -12.73,-18.99 -19.48,-28.21 13.29,2.55 26.74,-0.67 39.13,-5.45 18.64,-6.91 36.01,-17.69 49.71,-32.18 11.94,-12.27 19.52,-27.95 24.91,-44.02 -0.15,6.48 1.29,12.82 1.39,19.28 0.44,3.48 3.94,0.45 5.03,-1.03 2.9901,-4.26 5.51,-8.9 9.58,-12.3 3.46,3.99 4.38,9.2 5.23,14.23 2.97,-0.31 6.14,0.01 9,-0.92 1.55,-4.6 3.38,-9.2 4.11,-14.01 -0.02,-6.68 0,-13.36 0.01,-20.03 0.28,-7.8 -2.03,-15.36 -3.04,-23.03 -0.66,-6.02 -3.55,-11.42 -5.6,-17.02 -2.7701,-6.42 -4.4501,-13.22 -6.6701,-19.83 m -64.08,258.56 c 4.36,15.13 9.95,30.96 21.88,41.86 2.33,2.58 5.66,3.81 8.68,5.38 0.96,-0.26 1.93,-0.52 2.91,-0.77 -0.86,10.01 -6.13,18.67 -10.26,27.58 -9.59,20.79 -21.86,40.24 -35.17,58.83 -6.41,8.63 -12.9,17.2 -18.98,26.06 -5.11,8.89997 -8.89,18.50997 -11.46,28.43997 -0.67,5.6 -0.93,11.29 -0.39,16.92 1.66,13.14 0.16,26.38 -0.54,39.53 -0.26,7.65 -2.43,15.03 -3.86,22.51 -2.4,10.68 -4.85,21.35 -7.48,31.98 -3.36,9.96 -7.49,19.66 -10.11,29.86 -1.33,5.7201 -3.99,10.9701 -5.9,16.49 1.22,-0.1799 2.02,-0.84 2.4,-1.97 3.23,-6.62 4.98,-13.79 7.09,-20.8 2.34,-8.07 5.83,-15.75 8.31,-23.77 3.68,-15.58 7.51,-31.14 10.48,-46.88 1.29,-12.27 1.86,-24.62 2.06,-36.95 -0.6,-8.96 -1.87,-18 -0.33,-26.94 2.4901,-9.72 6.32,-19.07 11.29,-27.77997 5.61,-8.02 11.4,-15.93 17.34,-23.72 14.09,-19.5 27.07,-39.93 37.11,-61.83 3.31,-7.43 7.84,-14.47 9.21,-22.61 0.84,-3.04 0.69,-6.35 1.84,-9.27 3.94,-4.43 8.29,-8.53 13.05,-12.08 1.65,-1.39 3.78,-2.56 4.33,-4.82 -6.87,3.47 -12.23,9.32 -17.66,14.66 -1.41,1.19 -1.78,3.03 -2.34,4.7 -0.57,0.23 -1.72,0.69 -2.3,0.92 -5.86,-1.9 -10.09,-6.51 -13.9901,-11.03 -6.43,-8.75 -10.8,-18.83 -13.86,-29.2 -0.8699,-1.93 -0.7699,-4.88 -3.3499,-5.3 z m -139.84,-295.28 c 3.57,1.84 5.07,6.84 8.83,8.85 1.56,1.2 4.17,1.54 4.57,3.81 2.68,8.55 4.7,17.29 7.15,25.91 2.07,3.66 5.42,6.43 7.92,9.82 2.96,0.51 5.95,0.94 8.92,1.46 1.61,-0.94 3.21,-1.91 4.82,-2.86 1.68,3 2.49,7.01 5.95,8.52 4.85,3.27 11.2599,2.16 16.2,-0.33 2.1201,6.17 5.88,11.55 9.34,17.03 3.83,5.24 8.41,9.97 11.17,15.93 3.13,0.02 6.26,-0.23 9.4,-0.35 2.19,0.92 3.52,3.2 5.24,4.8 1.59,-0.18 3.19,-0.36 4.81,-0.54 3.65,3.61 8.35,5.62 13.39,6.34 2.39,-2.41 4.22,-6.62 8.29,-5.87 1.56,1.8 3.63,3.28 4.7,5.46 1.37,4.66 2.15,9.48 3.11,14.25 3.37,3 7.68,1.57 11.59,0.71 0.8,-1.85 1.55,-3.75 2.7,-5.41 2.7599,1.9 3.72,5.95 7.34,6.83 6.93,2.78 12.33,-3.89 18.66,-5.44 -5.08,12 -12.25,23.06 -20.46,33.14 -11.3,13.67 -25.67,25.24 -42.53,31.18 -17.33,6.03 -37.15,6.36 -53.97,-1.48 -4.91,-9.37 -12.78,-16.69 -18.59,-25.43 -6.19,-13.86 -11.99,-27.91 -18.03,-41.85 -1.29,-2.93 -3.38,-5.4 -4.78,-8.27 -5.18,-10.24 -7.4,-21.79 -13.48,-31.6 -5.6,-9.14 -11.21,-18.53 -19.23004,-25.79 0.16,-2.95 -0.07,-5.89 -0.74,-8.76 1.14004,-1.26 2.34004,-2.49 3.29004,-3.91 5.04,-8.58 9.45,-17.53 14.42,-26.15 z m -108.29004,18.22 c 2.98,-7.98 6.65,-15.74 11.73,-22.6 0.11,2.84 -0.37,5.95 1.32,8.47 2.21,4.89 6.96,7.69 11.17,10.66 1.76,1.39 4.11,1.03 6.19,1.36 -1.62,-5.91 -4.16,-11.62 -4.66,-17.79 6.66,6.13 14.44,10.85 21.45,16.55 4.7599,4.28 9.24,8.86 13.79,13.35 -2.93,6.06 -2.18,13.29 1.84,18.67 -5.86,7.26 -11.3,14.84 -16.53,22.57 -3.71,5.8 -9.13,10.16 -13.84,15.09 -7.03,6.69 -12.55,14.75 -19.3199,21.67 -6,6.07 -11.48,12.73 -18.45,17.75 -4.32,-0.79 -8.7,-0.21 -12.72,1.52 -6.58,-4.54 -14.14,-7.33 -21.07,-11.24 -6.57,-3.85 -14.32,-4.55 -21.74,-5.23 3.45,-7.01 8.26,-13.31 11.02,-20.66 3.68,-9.5 7.8,-18.82 11.86,-28.15 3.92,-9.79 6.57,-20.01 9.8,-30.02 -0.34,-1.21 -0.7,-2.4 -1.07,-3.58 -0.27,1.1 -0.8,3.29 -1.06,4.39 -0.21,-0.46 -0.64,-1.4 -0.85,-1.86 0.63,-1.03 1.28,-2.04 1.96,-3.04 0.63,0.01 1.27,0.05 1.92,0.04 0.32,-2.05 0.74,-4.06 1.25,-6.06 1.15,4.21 1.08,8.61 1.5,12.92 3.68,0.86 7.07,2.55 10.19,4.66 3.05,-0.87 6.09,-1.8 9.13,-2.74 1.0399,-5.76 2.8199,-11.35 5.1899,-16.7 m 4.98,12.05 c -3.12,0.59 -6.4,2.24 -7.25,5.57 -2.01,6.8 2.02,13.56 6.77,18.11 6.8,0.62 13.73,-2.05 18.74,-6.59 3.09,-3.49 5.1,-8.04 5.59,-12.67 0.34,-2.25 -0.82,-5.12 -3.3701,-5.34 -6.8099,-0.57 -13.7799,-0.54 -20.4799,0.92 z m -35.08,-88.13 c 6.01,-2.41 12.24,0.38 17.13,3.9 4.59,4.85 9.44,9.5 13.38,14.93 -3.29,1.2 -6.64,2.21 -9.96,3.32 -3.38,0.9 -5.86,3.5 -8.68,5.41 -4.9,-5.35 -10.43,-10.05 -16.23,-14.38 -0.27,-2.96 -0.46,-5.92 -0.66,-8.88 1.64,-1.46 3.19,-3.05 5.02,-4.3 z m 17.32,-8.8 c 2.59,-1.7 5.5,-2.84 8.26,-4.25 16.69,6.97 32.98,14.95 50.22,20.54 0.03,1.15 0.08,2.31 0.13,3.47 4.84,2.27 9.27,5.8 14.8199,6.06 4.8,1.07 10.35,0.52 14.29,3.94 5.44,4.19 11.81,7.44 15.88,13.17 2.66004,3.77 6.62004,6.82 8.55004,10.97 -3.96,4.36 -5.67,10.06 -8.04004,15.32 -2.53,6.65 -6.88,12.33 -10.61,18.32 -3.26,-0.32 -6.37,-1.38 -8.53,-3.95 -7.09,-7.14 -15.7,-12.36 -23.9,-18.08 -7.16,-4.83 -13.25,-11.55 -21.87,-13.83 0.88,-1.59 1.78,-3.17 2.71,-4.74 -5,-3.02 -10.71,-5.18 -14.56,-9.75 -4.36,-5.08 -11.13,-7.49 -14.86,-13.16 -5.23,-6.4 -11.15,-12.19 -17.27,-17.73 1.5501,-2.13 2.9201,-4.42 4.7801,-6.3 m 11.11,14.28 c 1.25,2.64 3.1,4.98 5.54,6.64 5.63,4.05 10.76,8.76 16.61,12.5 5.99,3.59 10.43,9.31 13.55,15.47 2.18,0.17 5.52,2.16 6.8,-0.58 -0.26,-4.07 -1.82,-8.57 -5.38,-10.93 -2.9901,-2.36 -5.95,-4.76 -8.9,-7.17 -5.71,-5.05 -13.29,-7.08 -19.49,-11.39 -2.83,-1.64 -5.27,-4.39 -8.73,-4.54 z m 678.59014,-28.42 c 4.5299,-0.71 9.1,0.1 13.62,0.52 5.6899,0.61 11.4199,0.95 17.09,1.77 5.34,1.03 10.64,2.28 15.97,3.39 2.6801,0.47 4.77,2.32 7.17,3.46 10.59,4.79 21.3199,9.27 31.89,14.12 5.75,3.47 11.8099,6.6 16.7999,11.18 5.64,5.01 11.8101,9.47 16.85,15.14 4.0901,4.56 8.7401,8.63 12.52,13.45 4.6901,7.67 9.6901,15.16 14.13,22.97 4.01,9.36 8.1,18.7 11.8101,28.18 3.88,17.6 6.95,35.4 9.03,53.31 -0.13,25.35 0.5299,50.72 2.6899,75.99 0.22,9 3.71,17.44 5.72,26.13 5.66,4.24 10.86,9.14 16.74,13.05 9.7201,2.85 19.42,5.9 29.4401,7.56 4.03,0.96 8.35,1.03 12.11,2.96 7.23,3.31 12.27,10.39 14.3,17.96 1.7599,5.75 5.24,10.73 7.9099,16.08 2.14,4.58 5.87,8.08 9.03,11.95 4.91,6.06 10.64,11.37 15.91,17.1 5.01,5.81 11.86,9.5 17.83,14.1801 5.6,4.5 12.37,7.0699 18.67,10.3799 7.11,3.58 14.26,7.1 21.37,10.67 2.84,1.18 3.13,5.28 1.8099,7.73 -4.88,10.94 -11.2799,21.13 -17.83,31.13 -4.67,4.41 -10.26,7.73 -15.11,11.93 -1.84,2.05 -4.8,1.48 -7.22,1.95 -5.12,-7.76 -8.65,-16.39 -12.9701,-24.57 -6.13,-9.15 -11.48,-18.88 -18.7,-27.25 -2.46,-2.84 -4.45,-6.18 -7.59,-8.32 -4.1801,-2.88 -8.4301,-5.65 -12.61,-8.5 -3.5801,-2.43 -5.5,-6.52 -8.7301,-9.31 -2.13,-1.35 -4.5399,-2.16 -6.8099,-3.2 -13.65,-5.85 -26.0701,-14.89 -40.8201,-17.88 -22.5399,-2.7599 -44.85,-7.07 -67.4199,-9.59 -8.3,-0.66 -16.02,-4 -23.97,-6.2 -7.76,-2.03 -14.9401,-5.65 -22.3101,-8.72 -9.37,-3.9 -17.25,-10.66 -26.73,-14.3101 -10.66,-4.2599 -20.98,-9.34 -31.0601,-14.8 -7.0399,-4.64 -15.0499,-8.02 -20.87,-14.29 -4.5699,-4.61 -9.59,-8.72 -14.51,-12.93 -3.6599,0.85 -7.13,2.97 -8.2999,6.73 l 0.53,1.4 c 1.83,-2.71 3.8899,-5.37 7.1799,-6.32 6.6,5.06 12.4301,11.01 18.59,16.57 16.03,10.84 33.4301,19.54 51.4,26.71 7.5,3.62 14.17,8.82 21.8,12.2 7.63,3.1 14.97,7 22.98,9.08 8.35,2.31 16.4399,5.88 25.17,6.52 20.5299,2.33 40.84,6.11 61.3199,8.79 18.16,1.39 32.8101,13.36 49.28,19.82 3.75,1.17 6.33,4.3 8.33,7.53 0.3,2.72 -0.75,5.5 -0.13,8.18 3.38,6.41 6.54,13.1 11.67,18.36 6.5599,8.4 14.09,15.93 21.7,23.37 3.8301,3.55 6.61,8 9.73,12.16 -0.02,1.55 -0.01,3.12 0.01,4.7 -2.49,3.22 -6.2,5.19 -8.6,8.46 -8.86,12.49 -24.99,16.73 -34.29,28.7599 -3.7699,-7.89 -6.86,-16.1 -11.21,-23.68 -6.51,-11.73 -12.2,-23.89 -18.11,-35.92 -3.49,-8.23 -9.86,-14.68 -14.89,-21.94 -3.86,-5.78 -9.46,-9.99 -14.26,-14.91 -3.22,-3.53 -7.9299,-4.89 -12.0699,-6.96 -3.24,-1.79 -7.3201,-0.48 -10.42,-2.53 -3.67,-2.23 -7.4,-4.51 -10.28,-7.76 -2.35,-2.21 -4.2999,-5.31 -7.7,-5.88 -9.59,-2.43 -19.2,-4.81 -28.61,-7.86 -11.47,-3.75 -23.3101,-6.16 -34.99,-9.11 -14.23,-3.72 -28.5601,-7.14 -42.4701,-11.95 -6.22,-1.42 -11.1299,-5.62 -16.46,-8.85 -4.29,-2.86 -8.84,-5.3 -13.24,-7.98 4.3201,-2.37 8.6,-4.88 12.48,-7.93 0.9,-0.98 2.73,-1.86 1.9301,-3.44 -1.1901,-0.19 -1.8201,1.17 -2.67,1.74 -7.8199,7.12 -18.4299,9.78 -26.71,16.21 -8.1801,4.98 -14.11,12.78 -22.1,18 -7.77,5.2401 -15.0601,11.23 -23.36,15.64 -14.63,8.22 -29.0701,16.8 -43.8501,24.76 -2.4299,-4.1 -5.09,-8.06 -7.36,-12.25 -9.39,-20.34 -17.63,-41.19 -26.09,-61.94 -2.66,-5.93 -3.6,-12.4 -5.24,-18.64 -1.35,-5.78 -2.85,-11.53 -4.0701,-17.34 7.3301,-5.44 13.5901,-12.39 17.9,-20.46 5.2001,-9.5 7.61,-20.3 8.29,-31.04 0.64,-11.42 -0.5601,-23.11 -4.83,-33.79 -3.25,-8 -5.03,-16.52 -6.0901,-25.06 -0.77,-6.58 -1.0699,-13.42 1,-19.8 1.3,-4.22 5.16,-6.76 7.7101,-10.15 11.13,-13.65 20.1399,-29.09 26.38,-45.56 4.2599,-11.66 7.34,-24.39 4.73,-36.78 -1.14,-5.72 -4.3401,-10.78 -8.36,-14.93 9.33,-5.01 18.1699,-11 28.0399,-14.94 4.4401,-1.89 8.85,-3.84 13.28,-5.76 5.24,-2.41 11.1,-2.67 16.65,-3.98 11.0207,-2.5298 22.3407,-3.1398 33.5308,-4.6198 z m -428.7901,376.08 c 2.58,0.42 2.48,3.3701 3.35,5.3 3.06,10.37 7.43,20.45 13.86,29.2 3.9,4.52 8.13,9.13 13.9901,11.03 0.58,-0.23 1.73,-0.69 2.3,-0.92 0.56,-1.67 0.93,-3.51 2.34,-4.7 5.43,-5.34 10.79,-11.19 17.66,-14.66 -0.55,2.26 -2.68,3.4301 -4.33,4.82 -4.76,3.55 -9.11,7.65 -13.05,12.08 -1.15,2.92 -1,6.23 -1.84,9.27 -1.37,8.14 -5.9,15.18 -9.21,22.61 -10.04,21.9 -23.02,42.33 -37.11,61.83 -5.94,7.79 -11.73,15.7 -17.34,23.72 -4.97,8.70997 -8.8,18.05997 -11.29,27.77997 -1.54,8.94 -0.27,17.98 0.33,26.94 -0.2,12.33 -0.77,24.68 -2.06,36.95 -2.97,15.7401 -6.8,31.3 -10.48,46.88 -2.48,8.02 -5.97,15.7 -8.31,23.77 -2.11,7.0099 -3.86,14.18 -7.09,20.8 -0.38,1.13 -1.18,1.79 -2.4,1.97 1.91,-5.5199 4.57,-10.7699 5.9,-16.49 2.62,-10.2 6.75,-19.9 10.11,-29.86 2.63,-10.63 5.08,-21.3 7.48,-31.98 1.43,-7.48 3.6,-14.86 3.86,-22.51 0.7,-13.15 2.2,-26.39 0.54,-39.53 -0.54,-5.63 -0.28,-11.32 0.39,-16.92 2.57,-9.93 6.35,-19.54 11.46,-28.43997 6.08,-8.86 12.57,-17.43 18.98,-26.06 13.31,-18.59 25.58,-38.04 35.17,-58.83 4.13,-8.91 9.4,-17.57 10.26,-27.58 -0.98,0.25 -1.95,0.51 -2.91,0.77 -3.02,-1.57 -6.35,-2.8 -8.68,-5.38 -11.9301,-10.9 -17.5201,-26.73 -21.8801,-41.86 z m -310.96004,-131.98 c 1.57,-2.44 4.03,-4.05 6.33,-5.72 2.75,0.72 6.16,1.24 7.42,4.21 0.23,1.56 -0.08,3.14 -0.16,4.72 -3.05,0.91 -6.26,0.8 -9.37,1.35 -2.35,0.66 -4.45,1.99 -6.69,2.95 0.68,-2.55 0.89,-5.33 2.47,-7.51 z m -14.17,-11.3 c 1.94,-3.32 4.24,-8.11 8.92,-7.19 -3.58,2.42 -6.92,5.51 -8.16,9.8 -1.73,4.27 -0.7,8.9 0.14,13.24 l -1.61,0.17 c -1.27,-5.29 -1.9,-11 0.71,-16.02 z m 81.98,-121.73 c 6.7,-1.46 13.67,-1.49 20.48,-0.92 2.55,0.22 3.71,3.09 3.3701,5.34 -0.4901,4.63 -2.5,9.18 -5.59,12.67 -5.01,4.54 -11.94,7.21 -18.74,6.59 -4.75,-4.55 -8.78,-11.31 -6.77,-18.11 0.8499,-3.33 4.1299,-4.98 7.2499,-5.57 m 17.01,0.29 c -0.82,4.49 -1.2,9.46 -4.29,13.08 -3.6,4.12 -9.17,5.34 -14.03,7.32 0.66,1.04 1.58,1.52 2.76,1.45 5.97,-0.09 11.98,-2.59 16.19,-6.83 2.9,-4.04 5.33,-9.11 4.24,-14.2 -1.63,-0.3 -3.25,-0.58 -4.87,-0.82 z m -23.66,-82.94 c 3.46,0.15 5.9,2.9 8.73,4.54 6.2,4.31 13.78,6.34 19.49,11.39 2.95,2.41 5.91,4.81 8.9,7.17 3.56,2.36 5.12,6.86 5.38,10.93 -1.28,2.74 -4.6201,0.75 -6.8,0.58 -3.12,-6.16 -7.56,-11.88 -13.55,-15.47 -5.85,-3.74 -10.98,-8.45 -16.61,-12.5 -2.44,-1.66 -4.29,-4 -5.54,-6.64 z m 1050.67004,-142.37 c 20.09,-7.9 40.05,-16.11 60,-24.35 7.22,6.19 16.3099,10.39 21.84,18.36 2.4301,2.87 4.59,5.99 7.25,8.68 2.99,2.69 6.0701,5.28 9.11,7.93 0.4301,4.28 1.11,8.54 1.2101,12.85 -2.37,2.57 -5.4,4.43 -8.05,6.68 4.76,0.16 9.4,1.26 13.87,2.91 -2.6,3.16 -5.0599,6.48 -6.5,10.35 2.6801,0.14 5.5,-0.26 8.12,0.59 1.37,0.33 1.6901,2.08 1.22,3.25 -2.0599,6.36 1.8301,12.43 3.78,18.3 -4.12,5.48 -8.39,10.84 -12.33,16.45 3.6799,-2.93 7.46,-5.73 11.22,-8.58 3.03,0.99 6.0601,2.03 9.11,3.04 -1.5699,2.43 -3.16,4.84 -4.61,7.34 2.84,-1.13 5.63,-2.37 8.45,-3.57 0.51,5.01 1.87,10.01 1.89,15.03 -2.1,3.54 -4.1599,7.14 -6.65,10.41 -3.7799,2.72 -7.85,4.99 -11.7599,7.5 -2.02,7.92 -4.9501,15.6 -9.3,22.54 -7.53,4.71 -14.9401,9.78 -23.4401,12.6 -10.23,3.66 -19.85,9.56 -30.84,10.59 -18.39,2.91 -36.75,6.05 -55.16,8.83 -18.2999,0.12 -36.62,0.09 -54.9199,0 -13.6801,-1.91 -27.3,-4.22 -40.96,-6.27 -7.3101,-1.38 -14.89,-1.63 -21.8701,-4.35 -12.6799,-4.4 -25.47,-8.5 -38.12,-12.98 -12.13,-5.95 -23.98,-12.5 -36.1,-18.49 -8.7899,-3.4 -17.65,-6.65 -26.5,-9.9 -9.53,-2.42 -19.2,-4.27 -28.88,-5.96 -2.27,3.78 -3.64,8.21 -6.95,11.27 -2.73,2.57 -5.15,5.49 -8.09,7.81 -3.8,2.41 -7.87,4.35 -11.6101,6.85 5.4301,3.44 11.3401,6.24 16.14,10.6 6.04,5.27 12.55,10.06 17.91,16.07 4.1801,4.51 8.8101,8.65 12.63,13.48 4.7,7.57 9.49,15.1 14.0601,22.75 4.1599,9.54 8.2799,19.11 12.1399,28.78 3.8601,17.47 6.9,35.14 9.04,52.92 -0.08,25.39 0.59,50.8 2.71,76.11 0.1901,8.92 3.37,17.38 5.66,25.9 4.78,4.45 10.14,8.37 15.3,12.41 5.83,2.27 12.0399,3.46 18.02,5.33 7.3199,2 14.9199,2.77 22.2699,4.66 3.78,1.89 7.9901,3.69 10.37,7.37 1.39,1.91 2.9601,3.69 4.1901,5.72 2.0699,4.45 2.99,9.4 5.5,13.68 2.33,4.09 4.34,8.38 6.84,12.39 6.55,8.33 13.75,16.11 21.2101,23.63 6.5599,7.65 15.48,12.62 23.4399,18.64 12.49,6.55 25.23,12.6299 37.8,19.04 0.4099,2 1.23,3.97 1.23,6.06 -1.17,3.07 -2.65,6.02 -3.86,9.08 1.5399,0.88 3.11,1.7599 4.6799,2.65 0.42,0.25 1.25,0.74 1.66,0.98 8.04,6.05 13.95,14.42 20.61,21.8799 3.1801,3.05 1.49,7.67 0.88,11.42 0.47,-1.24 0.97,-2.48 1.49,-3.7 0.4301,1.61 0.88,3.23 1.35,4.86 -2.0699,5.06 -3.77,10.37 -7,14.84 -3.7899,5.3 -7.22,10.89 -11.5599,15.77 -3.75,4.3 -7.6801,8.4301 -11.27,12.86 -0.63,0.02 -1.9,0.06 -2.53,0.08 -9.62,-10.03 -15.1899,-23.05 -23.9399,-33.74 -2.51,2.79 -3.65,6.46 -5.41,9.72 -2.24,4.23 -4.37,8.52 -5.9301,13.05 -4.1899,9.53 -10.5399,17.88 -17.1,25.88 -2.52,2.84 -5.52,5.19 -8.47,7.55 -2.95,2.39 -6.79,3.69 -9,6.93 -6.8101,9.11 -14.23,17.73 -21.8,26.20997 -10.3099,12.62 -22.2899,23.7 -33.51,35.48 -4.5699,4.84 -10.0099,8.7 -15.0499,13.02 -8.42,6.91 -16.76,13.93 -25.1801,20.83 -16.1499,12.18 -32.5299,24.06 -48.6599,36.2599 -6.0701,4.52 -13.05,7.55 -19.62,11.2401 -11.9701,6.34 -23.8401,12.87 -35.8,19.24 -16.7,8.01 -33.4,16.01 -50.1,24 -16.8301,8.37 -34.4601,14.95 -51.7101,22.36 -10.2599,4.09 -20.2,9.08 -30.86,12.1 -14.0399,4.26 -27.9099,9.11 -42.1,12.88 -18.51,4.55 -36.73,10.3201 -55.51,13.6901 -12.37,2.3199 -24.65,5.09 -37.1,6.9299 -27.05,4.0801 -54.02,8.6801 -81.22,11.64 0.15,-0.4399 0.45,-1.3099 0.6,-1.75 25.65,-2.73 51.09,-7.05 76.58,-10.95 10.49,-1.41 20.85,-3.5701 31.2299,-5.62 10.76,-2.2201 21.64,-3.91 32.2101,-6.9301 18.26,-5 36.75,-9.16 54.72,-15.17 12.0699,-4.0399 24.54,-7 36.1901,-12.24 18.0199,-7.5599 36.09,-15.0299 54.1,-22.64 20.39,-9.72 40.76,-19.4799 61.12,-29.27 17.11,-9.12 34.1899,-18.3 51.28,-27.47 6.7899,-4.42 13.0399,-9.62 19.6299,-14.34 15.3501,-11.64 31.26,-22.56 45.91,-35.11 8.37,-6.97 16.84,-13.81 25.12,-20.88 7.22,-7.14 14.2101,-14.49 21.35,-21.7 8.2301,-8.14 15.42,-17.22 23.12,-25.83997 5.38,-5.95 9.9801,-12.53 15.2401,-18.57 -1.55,-0.14 -3.1101,-0.3 -3.91,-1.78 -2.0601,-2.61 -4.3,-5.15 -5.78,-8.13 -3.88,-9.68 -7.62,-19.43 -10.01,-29.6 -1.74,1.6 -3.47,3.22 -5.1799,4.84 -4.1801,-9.09 -7.8501,-18.43 -12.8201,-27.1299 -7.26,-13.03 -13.29,-26.71 -20.14,-39.95 -3.84,-5.75 -8.2799,-11.08 -12.3099,-16.7 -3.62,-5.3 -8.76,-9.24 -13.23,-13.76 -3.1901,-3.47 -7.7001,-5.07 -11.8401,-7.03 -3.2999,-1.66 -7.36,-0.53 -10.51,-2.51 -3.88,-2.38 -7.86,-4.72 -10.9199,-8.14 -2.28,-2.09 -4.13,-5.12 -7.42,-5.62 -9.42,-2.39 -18.85,-4.75 -28.1,-7.73 -13.14,-4.27 -26.72,-6.89 -40.0601,-10.42 -10.3999,-2.87 -20.98,-5.13 -31.1899,-8.66 -5.26,-1.88 -10.98,-2.83 -15.6,-6.16 -6.78,-4.28 -13.37,-8.94 -20.5701,-12.5 -5.2899,-0.31 -9.5499,3.72 -13.74,6.44 -8.0699,5.07 -14.02,12.77 -22.02,17.94 -7.7899,5.2401 -15.1,11.25 -23.4299,15.67 -12.52,7.12 -25.04,14.24 -37.55,21.37 -7.73,4.38 -15.88,7.99 -23.34,12.84 -8.13,4.62 -16.05,9.71 -24.83,13.05 -9.91,3.82 -18.8,9.83 -28.5701,13.91 -20.7,4.11 -41.37,8.55 -62.25,11.72 -13.14,2.59 -26.6,2.42 -39.9,3.65 -10.51,1.1 -21.07,-0.14 -31.59,0.12 -1.41,3.75 -1.49,8 -3.74,11.42 -2.51,3.8 -4.91,7.7401 -8.16,10.97 -4.29,4.38 -8.2,9.22 -13.33,12.67 -7.71,5.45 -14.98,11.46 -22.12,17.62 -7.71,5.99 -13.43,14.02 -20.35,20.82 -11.97,11.78 -23.6,23.91 -34.36,36.79997 -2.11,3.02 -2.84,6.89 -2.55,10.53 0.39,6.3 0.78,12.67 -0.32,18.93 -5.28,13.83 -16.02,24.64 -21.83,38.2 -3.69,12.08 -5.64,24.57 -7.87,36.98 -0.78,9.66 -0.88,19.39 -1.48,29.08 -1.1,13.28 -3.23,26.48 -3.66,39.8199 -0.46,9.99 -1.04,19.98 -1.29,29.99 0.04,5.3301 -3.04,9.9301 -4.74,14.8101 -2.37,1.51 -4.73,3.01 -7.1,4.51 -1.17,5.0599 -2.28,10.25 -0.84,15.4 12.53,1.2999 25.08,2.49 37.63,3.59 -1.66,0.7 -3.34,1.58 -5.19,1.1899 -10.54,-1.01 -21.1,-1.84 -31.6,-3.1699 -2.93,7.65 -5.2,15.6699 -9.47,22.72 -4,4.27 -8.56,8.02 -13.01,11.83 -0.52,-0.2 -1.56,-0.59 -2.08,-0.7799 -1.0699,0.75 -2.09,1.5599 -3.09,2.3899 -11.56,-2.62 -23.25,-4.61 -34.94,-6.5 l 1.21,0.16 c -0.8701,-0.46 -1.73,-0.9 -2.56,-1.33 0.45,-0.77 0.93,-1.53 1.29,-2.3301 l -0.52,0.1001 c -3.07,-3.53 -1.95,-8.3301 -2.15,-12.5701 -0.41,-8.58 4.8199,-15.98 5.88,-24.3199 -5.98,-1.24 -11.95,-2.5 -17.9901,-3.34 -3.8,-0.5601 -7.66,-0.9301 -11.28,-2.27 -9.91,-3.9 -20.27,-6.5701 -30.1,-10.6801 -10.03,-4.85 -19.70004,-10.38 -29.70004,-15.28 -27.87,-12.62 -55.64,-25.51 -83.87,-37.33 -6.82,-2.71 -14.83,-3.66 -21.6,-0.3101 -3.33,2.3101 -5.95,5.4901 -8.25,8.8 -3.3,4.34 -2.07,10.24 -1.45,15.25 5.91,9.35 13.89,17.5701 23.6,23.02 7.01,4.76 15.71,5.8199 22.74,10.59 -0.58,0.29 -1.73,0.86 -2.3,1.14 -6.24,-2.59 -12.13,-6.2 -18.84,-7.46 -5.98,-1.2001 -12.53,-2.98 -18.37,-0.3101 -4.41,1.9501 -9.01,4.38 -11.74,8.51 -1.15,4.48 -0.82,9.37 0.42,13.8 1.91,3.5499 4.68,6.5599 6.98,9.86 1.37,2.11 3.53,3.45 5.84,4.35 10.98,4.5601 21.69,9.78 32.78,14.05 21.56,7.1599 43.12,14.33 64.73,21.3199 22.14,6.21 43.96004,13.5701 66.37004,18.79 11.47,2.7899 22.94,5.63 34.42,8.4399 8.24,1.9301 16.41,4.27 24.83,5.35 18.33,2.9301 36.67,5.8 54.98,8.8301 -1.24,0.29 -2.47,0.6 -3.7,0.91 -11.47,-1.4901 -22.88,-3.64 -34.33,-5.3601 -11.4,-2 -22.96,-3.1599 -34.16,-6.1699 -19.54,-4.85 -39.14,-9.48 -58.65,-14.4601 -22.8,-6.85 -45.80004,-13.0199 -68.35004,-20.6499 -12.37,-4.0901 -24.75,-8.16 -37.12,-12.25 -15.2,-4.4601 -29.25,-11.9401 -43.88,-17.89 -3.19,-0.88 -4.72,-3.9401 -6.61,-6.35 -1.92,-2.7101 -4.16,-5.2001 -5.87,-8.05 -0.96,-5.25 -2.19,-10.88 0.03,-16 4.09,-4.9399 9.97,-7.6899 15.84,-9.92 4.96,-0.72 9.88,0.41 14.75,1.2201 -10.99,-5.4701 -19.47,-14.6801 -26.23,-24.7301 -0.35,-4.0099 -0.55,-8.0299 -0.64,-12.0399 2.31,-5.67 6.72,-10.05 11.05,-14.2401 4.43,-1.29 8.97,-2.61 13.65,-2.11 8.64,1.22 16.42,5.42 24.36,8.79 20.64,8.9401 41.1,18.3 61.6,27.5701 12.9901,5.63 25.21004,12.85 37.89004,19.11 4.69,1.83 9.47,3.4199 14.29,4.88 -1.92,-1.23 -3.87,-2.4 -5.76,-3.64 1.75,-5.39 2.91,-10.9501 4.73,-16.3 2.05,-4.09 4.78,-7.8099 7.14,-11.73 3.54,-5.0599 5.01,-11.16 7.34,-16.7999 -2.38,-2.3701 -4.78,-4.7101 -7.06,-7.15 2.94,-7.71 6.52,-15.1201 10.33,-22.4301 10.94,-20.93 19.48,-43.13 25.53,-65.95 3.49,-11 2.95,-22.72 3.87,-34.11 -0.17,-8.26 -2.2,-16.47 -1.59,-24.77 0.74,-5.72 1.19,-11.51 2.45,-17.13997 2.98,-8.33 7.96,-15.7 13.01,-22.89 8.5,-11.73 13.47,-25.45 19.56,-38.48 5.39,-11.1 8.51,-23.08 12.78,-34.62 2.59,-7.26 5.23,-14.51 7.81,-21.77 1.98,-6.25 3.04,-12.76 5.01,-19.01 1.48,-2.58 3.68,-4.67 5.44,-7.05 -3.12,-4.46 -6.67,-8.69 -9.35,-13.41 -3.53,-14.3101 -6.8,-28.6801 -10.61,-42.92 -1.4,-7.06 -4.96,-13.38 -7.67,-19.97 -2.12,-4.49 -3.58,-9.34 -6.47,-13.42 -7.05,-10.2599 -13.81,-20.73 -21.27,-30.6899 -19.3,-4.42 -35.62,-17.08 -48.47,-31.71 -11.9,3.39 -25.77,2.43 -35.91,-5.17 -8.66004,-6.54 -14.44004,-15.94 -19.93004,-25.12 -8.74,3.24 -17.12,7.4 -25.99,10.27 -6.94,2.41 -13.88,4.86 -20.84,7.23 -2.89,0.8199 -5.03,2.99 -7.26,4.87 -5.73,5.2 -11.43,10.5699 -15.86,16.95 -1.39,7.4 -3.04,14.83 -6.39,21.64 -3.8199,6.08 -8.02,11.92 -12.55,17.51 -3.45,0.95 -6.81,2.25 -10.29,3.11 -5.51,0.34 -11.3,0.77 -16.33,-1.95 -1.92,-2.89 -3.93,-5.84 -4.01,-9.44 -3.96,-0.03 -7.57,2.04 -11.52,1.96 -2.64,0.02 -5.27,-0.02 -7.9,-0.04 -1.95,-1.78 -4.03,-3.4 -5.83,-5.32 -2.35,-2.63 -3.38,-6.41 -6.49,-8.33 -4.96,-3.31 -9.41,-7.31 -13.82,-11.3 -3.39,-4.62 -6.37,-9.99 -6.07,-15.89 1.03,-2.53 1.88,-5.26 3.59,-7.4 5.32,-3.26 10.78,-6.53 14.78,-11.42 4.4,-6.08 8.68,-12.28 11.73,-19.16 2.64,-4.4 3.32,-9.5 4,-14.49 1.94,-0.44 2.73,-2.37 3.69,-3.89 2.87,-5.11 6.15,-10.02 8.58,-15.36 4.09,-10.71 8.74,-21.19 13.28,-31.71 3.27,-8.95 6.08,-18.06 8.66,-27.24 0.26,-1.1 0.79,-3.29 1.06,-4.39 0.37,1.18 0.73,2.37 1.07,3.58 -3.23,10.01 -5.88,20.23 -9.8,30.02 -4.06,9.33 -8.18,18.65 -11.86,28.15 -2.76,7.35 -7.57,13.65 -11.02,20.66 7.42,0.68 15.17,1.38 21.74,5.23 6.93,3.91 14.49,6.7 21.07,11.24 4.02,-1.73 8.4,-2.31 12.72,-1.52 6.97,-5.02 12.45,-11.68 18.45,-17.75 6.77,-6.92 12.29,-14.98 19.3199,-21.67 4.71,-4.93 10.13,-9.29 13.84,-15.09 5.23,-7.73 10.67,-15.31 16.53,-22.57 -4.02,-5.38 -4.77,-12.61 -1.84,-18.67 -4.55,-4.49 -9.03,-9.07 -13.79,-13.35 -7.01,-5.7 -14.79,-10.42 -21.45,-16.55 0.5,6.17 3.04,11.88 4.66,17.79 -2.08,-0.33 -4.43,0.03 -6.19,-1.36 -4.21,-2.97 -8.96,-5.77 -11.17,-10.66 -1.69,-2.52 -1.21,-5.63 -1.32,-8.47 -5.08,6.86 -8.75,14.62 -11.73,22.6 -2.37,5.35 -4.15,10.94 -5.19,16.7 -3.04,0.94 -6.08,1.87 -9.13,2.74 -3.12,-2.11 -6.51,-3.8 -10.19,-4.66 -0.42,-4.31 -0.35,-8.71 -1.5,-12.92 -0.51,2 -0.93,4.01 -1.25,6.06 -0.65,0.01 -1.29,-0.03 -1.92,-0.04 -0.68,1 -1.33,2.01 -1.96,3.04 -1.54,2.18 -3.43,4.09 -5.18,6.11 -1.24,-0.57 -2.47,-1.12 -3.7,-1.66 0.92,-6.23 2.08,-12.41 3.5,-18.53 -4.33,1.24 -8.51,3 -12.91,3.95 -3.42,0.03 -6.83,-0.39 -10.24,-0.59 -0.3,-1.56 -0.61,-3.11 -0.91,-4.65 3.42,-0.33 6.84,-0.54 10.27,-0.77 3.67,-3.58 8.51,-6.18 10.71,-11.04 -4.63,1.47 -9.12,3.37 -13.76,4.82 -5.22,1.2 -10.57,1.66 -15.89,2.16 -0.84,-4.54 -1.87,-9.15 -0.72,-13.73 7.02,-1.3 14.57,-0.76 21.06,-4.13 3.63,-1.64 7.58,-2.67 10.85,-5.02 6.74,-4.37 11.67,-10.93 18.47,-15.22 -4.82,-5.62 -10.66,-10.18 -16.49,-14.69 -0.27,-3.51 -0.52,-7.02 -0.66,-10.54 2.04,-1.77 4.06,-3.58 6.05,-5.4 3.66,-0.23 7.42,-1.09 11.02,-0.02 1.5,-2.92 3.44,-5.61 5.59,-8.08 3,-1.89 6.31,-3.21 9.45,-4.86 16.62,6.87 32.77,14.9 49.92,20.46 5.32,-2.85 9.54,-7.27 14.46,-10.68 6.57,-0.13 13.15,-0.35 19.72,-0.64 5.77,1.04 11.14,3.7 17.01004,4.35 7.34,0.95 14.62,2.52 22,3.14 9.05,-0.54 18.1,-1.19 27.15,-1.82 5.33,-1.21 10.47,-3.17 15.74,-4.63 1.39,2.35 3.38,4.42 4.25,7.03 -0.13,2.8 -0.25,5.64 -0.79,8.4 -0.97,1.44 -2.19,2.68 -3.32,3.98 1.86,2.72 4.82,3.75 7.99,2.69 7.52,1.94 14.6,5.24 21.69,8.36 8.24,3.03 14.24,9.77 21.47,14.48 13.08,8.14 26.61,15.52 40.02,23.11 1.5,0.8 2.99,1.8 4.75,1.96 7.57,0.99 15.26,1.27 22.69,3.18 -0.03,3.29 -0.04,6.59 0.02,9.88 2.3,1.88 4.34,4.11 6.95,5.58 3.7,1.81 7.9,2.07 11.94,2.39 0.25,-1.46 0.51,-2.91 0.79,-4.35 2.71,1.22 5.59,2.27 7.88,4.25 1.98,1.63 2.48,4.31 4.13,6.2 1.22,0.36 2.47,0.64 3.75,0.87 -0.56,-4.22 0.54,-8.9 4.43,-11.19 8.61,-5.12 19.11,-3.76 28.59,-2.52 21.19,2 42.89,2.77 63.73,-2.37 14.95,-3.75 29.84,-7.77 44.65,-12.09 10.65,-3.2 21.37,-6.26 31.73,-10.34 13.3301,-5.27 25.7101,-13.07 35.9,-23.2 9.4301,-9.2 17.21,-20.32 28.55,-27.4 6.2699,-3.99 14.14,-6.34 21.45,-3.96 3.51,0.91 6.35,3.28 9.52,4.87 9.61,-4.95 18.5499,-11.24 28.66,-15.2 7.83,-3.08 15.23,-7.62 23.74,-8.58 14.1599,-3.24 28.63,-4.59 43.0399,-6.18 4.61,-0.2 9.1901,0.73 13.79,1.05 6.01,0.75 12.14,0.8 18.0601,2.24 6.21,1.53 12.6799,2.17 18.5599,4.84 6.75,-5.68 12.53,-12.5 19.9301,-17.39 8.7699,-6.17 17.48,-12.46 25.6,-19.48 2.58,-3.14 4.72,-6.61 7.16,-9.87 3.4299,-5.07 8,-9.2 12.0199,-13.78 2.65,-2.73 4.89,-5.97 8.26,-7.9 7.61,-4.67 15.03,-9.65 22.7201,-14.2 9.49,-4.86 18.9299,-9.84 28.5299,-14.48 11.2001,-3.45 22.42,-6.9 33.6801,-10.14 11.5,-1.67 23.03,-3.29 34.58,-4.62 17.1901,-0.45 34.37,-1.47 51.5701,-1.29 -0.2101,2.14 -0.39,4.28 -0.53,6.42 3.28,1.76 7.13,2.49 10.83,2.34 10.04,-2.12 20.1,-4.19 30.12,-6.45 11.5,-3.1397 23.08,-6.0597 34.55,-9.3197 m -372.0799,113.95 c -11.1901,1.48 -22.51,2.09 -33.53,4.62 -5.55,1.31 -11.41,1.57 -16.65,3.98 -4.4301,1.92 -8.84,3.87 -13.28,5.76 -9.87,3.94 -18.71,9.93 -28.0399,14.94 4.0199,4.15 7.22,9.21 8.36,14.93 2.61,12.39 -0.4701,25.12 -4.73,36.78 -6.2401,16.47 -15.25,31.91 -26.38,45.56 -2.55,3.39 -6.41,5.93 -7.7101,10.15 -2.0699,6.38 -1.77,13.22 -1,19.8 1.0601,8.54 2.8401,17.06 6.0901,25.06 4.2699,10.68 5.47,22.37 4.83,33.79 -0.6801,10.74 -3.09,21.54 -8.29,31.04 -4.3099,8.07 -10.5699,15.02 -17.9,20.46 1.2201,5.81 2.7201,11.56 4.0701,17.34 1.64,6.2401 2.58,12.71 5.24,18.64 8.46,20.75 16.7,41.6 26.09,61.94 2.27,4.19 4.9301,8.15 7.36,12.25 14.78,-7.96 29.2201,-16.54 43.8501,-24.76 8.2999,-4.41 15.59,-10.4 23.36,-15.64 7.99,-5.22 13.9199,-13.02 22.1,-18 8.28,-6.43 18.89,-9.09 26.71,-16.21 0.85,-0.57 1.48,-1.93 2.67,-1.74 0.7999,1.58 -1.03,2.46 -1.9301,3.44 -3.88,3.05 -8.1599,5.56 -12.48,7.93 4.4,2.68 8.95,5.12 13.24,7.98 5.3301,3.23 10.24,7.43 16.46,8.85 13.91,4.8101 28.2401,8.23 42.4701,11.95 11.6799,2.95 23.52,5.36 34.99,9.11 9.41,3.05 19.02,5.43 28.61,7.86 3.4,0.57 5.35,3.67 7.7,5.88 2.88,3.25 6.61,5.53 10.28,7.76 3.1,2.05 7.1801,0.74 10.42,2.53 4.14,2.07 8.85,3.43 12.0699,6.96 4.8,4.92 10.4,9.13 14.26,14.91 5.03,7.26 11.4,13.71 14.89,21.94 5.91,12.03 11.6,24.19 18.11,35.92 4.35,7.58 7.4401,15.79 11.21,23.68 9.3,-12.03 25.4301,-16.27 34.29,-28.7599 2.4,-3.27 6.11,-5.2401 8.6,-8.46 -0.02,-1.58 -0.03,-3.15 -0.01,-4.7 -3.12,-4.16 -5.8999,-8.61 -9.73,-12.16 -7.61,-7.44 -15.14,-14.97 -21.7,-23.37 -5.13,-5.26 -8.29,-11.95 -11.67,-18.36 -0.62,-2.68 0.4301,-5.46 0.13,-8.18 -2,-3.23 -4.58,-6.36 -8.33,-7.53 -16.47,-6.46 -31.12,-18.43 -49.28,-19.82 -20.48,-2.68 -40.79,-6.46 -61.3199,-8.79 -8.7301,-0.64 -16.8201,-4.21 -25.17,-6.52 -8.01,-2.08 -15.35,-5.98 -22.98,-9.08 -7.63,-3.38 -14.3,-8.58 -21.8,-12.2 -17.97,-7.17 -35.37,-15.87 -51.4,-26.71 -6.1599,-5.56 -11.99,-11.51 -18.59,-16.57 -3.29,0.95 -5.35,3.61 -7.1799,6.32 l -0.53,-1.4 c 1.1699,-3.76 4.64,-5.88 8.2999,-6.73 4.92,4.21 9.9401,8.32 14.51,12.93 5.8201,6.27 13.8301,9.65 20.87,14.29 10.0801,5.46 20.4,10.54 31.0601,14.8 9.48,3.65 17.36,10.41 26.73,14.3101 7.37,3.0699 14.55,6.6899 22.3101,8.72 7.95,2.2 15.6699,5.54 23.97,6.2 22.5699,2.52 44.88,6.83 67.4199,9.59 14.75,2.9901 27.17,12.03 40.8201,17.88 2.27,1.04 4.6799,1.85 6.8099,3.2 3.2301,2.79 5.15,6.88 8.7301,9.31 4.1799,2.85 8.4299,5.62 12.61,8.5 3.14,2.14 5.13,5.48 7.59,8.32 7.22,8.37 12.5699,18.1 18.7,27.25 4.3201,8.18 7.8501,16.81 12.9701,24.57 2.4199,-0.47 5.38,0.1 7.22,-1.95 4.85,-4.2 10.4399,-7.52 15.11,-11.93 6.55,-10 12.95,-20.19 17.83,-31.13 1.3201,-2.45 1.03,-6.55 -1.8099,-7.73 -7.11,-3.57 -14.26,-7.09 -21.37,-10.67 -6.3,-3.31 -13.0701,-5.8799 -18.67,-10.3799 -5.97,-4.6801 -12.8199,-8.3701 -17.83,-14.1801 -5.27,-5.73 -11,-11.04 -15.91,-17.1 -3.16,-3.87 -6.89,-7.37 -9.03,-11.95 -2.6699,-5.35 -6.15,-10.33 -7.9099,-16.08 -2.03,-7.5699 -7.0701,-14.65 -14.3,-17.96 -3.76,-1.93 -8.08,-2 -12.11,-2.96 -10.02,-1.66 -19.72,-4.71 -29.4401,-7.56 -5.88,-3.91 -11.08,-8.81 -16.74,-13.05 -2.01,-8.69 -5.5,-17.13 -5.72,-26.13 -2.16,-25.27 -2.8199,-50.64 -2.6899,-75.99 -2.0801,-17.91 -5.15,-35.71 -9.03,-53.31 -3.7101,-9.48 -7.8,-18.82 -11.8101,-28.18 -4.4399,-7.81 -9.4399,-15.3 -14.13,-22.97 -3.7799,-4.82 -8.4299,-8.89 -12.52,-13.45 -5.0399,-5.67 -11.21,-10.13 -16.85,-15.14 -4.99,-4.58 -11.0499,-7.71 -16.7999,-11.18 -10.5701,-4.85 -21.3,-9.33 -31.89,-14.12 -2.4,-1.14 -4.49,-2.99 -7.17,-3.46 -5.33,-1.11 -10.63,-2.36 -15.97,-3.39 -5.67,-0.82 -11.4,-1.16 -17.09,-1.77 -4.5209,-0.4202 -9.0909,-1.2302 -13.6208,-0.5202 m -689.70014,14.14 c -1.86,1.88 -3.23,4.17 -4.78,6.3 6.12,5.54 12.04,11.33 17.27,17.73 3.73,5.67 10.5,8.08 14.86,13.16 3.85,4.57 9.56,6.73 14.56,9.75 -0.93,1.57 -1.83,3.15 -2.71,4.74 8.62,2.28 14.71,9 21.87,13.83 8.2,5.72 16.81,10.94 23.9,18.08 2.16,2.57 5.27,3.63 8.53,3.95 3.73,-5.99 8.08,-11.67 10.61,-18.32 2.37004,-5.26 4.08004,-10.96 8.04004,-15.32 -1.93,-4.15 -5.89,-7.2 -8.55004,-10.97 -4.07,-5.73 -10.44,-8.98 -15.88,-13.17 -3.94,-3.42 -9.49,-2.87 -14.29,-3.94 -5.55,-0.26 -9.98,-3.79 -14.8199,-6.06 -0.05,-1.16 -0.1,-2.32 -0.13,-3.47 -17.2401,-5.59 -33.53,-13.57 -50.22,-20.54 -2.7601,1.41 -5.6701,2.55 -8.2601,4.25 m -17.32,8.8 c -1.83,1.25 -3.38,2.84 -5.02,4.3 0.2,2.96 0.39,5.92 0.66,8.88 5.8,4.33 11.33,9.03 16.23,14.38 2.8199,-1.91 5.3,-4.51 8.68,-5.41 3.32,-1.11 6.67,-2.12 9.96,-3.32 -3.94,-5.43 -8.79,-10.08 -13.38,-14.93 -4.89,-3.52 -11.12,-6.31 -17.13,-3.9 m 592.79004,1.69 c -12.85,4.06 -21.7899,14.85 -30.5399,24.47 -10.65,12.08 -23.76,22.11 -38.63,28.4 -9.39,4.13 -19.25,7.06 -29.03,10.09 -17.16,5.17 -34.48,9.83 -51.85,14.21 -23.98,5.85 -48.94,4.13 -73.21,1.36 -6.36,-0.43 -13.23,-0.01 -18.75,3.46 -4,2.57 -4.2,8.08 -2.66,12.14 7.14,22.14 24.73,39.18 44.0699,51.19 10.9,7.36 25.6,5.68 36.01,13.98 4.87,3.76 6.38,9.96 8.11,15.55 2.57,7.82 4.3,15.88 6.13,23.9 3.02,12.93 3.96,26.31 8.12,38.97 2.4,7.1 6.02,14.8 13.27,18.02 8.23,3.56 16.9,6.16 25.79,7.36 20.66,2.79 40.61,-4.93 59.74,-11.64 11.63,-5.08 22.73,-12.21 30.5699,-22.36 7.5,-9.55 11.4501,-21.36 12.9601,-33.3 1.2699,-12.76 0.5699,-25.97 -4.2301,-37.99 -2.5099,-6.1 -4.11,-12.52 -5.23,-19.01 -1.46,-8.43 -2.47,-17.27 -0.4399,-25.68 1.16,-5.7 6.15,-9.15 9.51,-13.5 10.25,-12.8 18.47,-27.21 24.5599,-42.43 4.1,-10.91 7.23,-22.67 5.6901,-34.41 -0.99,-7.99 -5.4501,-15.67 -12.5,-19.77 -5.11,-3.31 -11.54,-4.79 -17.46,-3.01 m -537.44004,42.64 c -0.01,3.74 -0.79,8.34 2.37,11.11 6.94,6.85 15.85,11.32 22.95,18 5.83,5.79 11.53,11.75 18.13,16.68 3.02,-2.77 5.95,-5.74 7.82,-9.45 -5.94,-4.78 -11.1801,-10.41 -17.57,-14.61 -7.55,-5.09 -15.12,-10.15 -22.17,-15.91 -3.32,-2.86 -7.4,-4.54 -11.53,-5.82 m 72.27004,6.12 c -2.83,5.69 -4.72,11.82 -7.84004,17.37 -4.03,6.55 -8.33,12.93 -12.21,19.57 2.58,1.25 5.1,2.71 7.91,3.4 3.98,-3.56 7.50004,-7.72 9.85004,-12.54 3.86,-7.64 8.62,-14.9 11.97,-22.75 -1.37,-3.4 -3.86,-6.2 -5.98,-9.14 -1.37,1.22 -2.9,2.39 -3.7,4.09 m 10.77,7.41 c -4.97,8.62 -9.38,17.57 -14.42,26.15 -0.95,1.42 -2.15,2.65 -3.29004,3.91 0.67,2.87 0.9,5.81 0.74,8.76 8.02004,7.26 13.63004,16.65 19.23004,25.79 6.08,9.81 8.3,21.36 13.48,31.6 1.4,2.87 3.4901,5.34 4.78,8.27 6.04,13.94 11.84,27.99 18.03,41.85 5.81,8.74 13.6801,16.06 18.59,25.43 16.82,7.84 36.64,7.51 53.97,1.48 16.86,-5.94 31.23,-17.51 42.53,-31.18 8.21,-10.08 15.38,-21.14 20.46,-33.14 -6.33,1.55 -11.73,8.22 -18.66,5.44 -3.62,-0.88 -4.58,-4.93 -7.34,-6.83 -1.15,1.66 -1.9,3.56 -2.7,5.41 -3.91,0.86 -8.22,2.29 -11.59,-0.71 -0.96,-4.77 -1.74,-9.59 -3.11,-14.25 -1.07,-2.18 -3.14,-3.66 -4.7,-5.46 -4.07,-0.75 -5.9,3.46 -8.29,5.87 -5.04,-0.72 -9.74,-2.73 -13.39,-6.34 -1.62,0.18 -3.22,0.36 -4.81,0.54 -1.72,-1.6 -3.05,-3.88 -5.24,-4.8 -3.14,0.12 -6.27,0.37 -9.4,0.35 -2.76,-5.96 -7.34,-10.69 -11.17,-15.93 -3.46,-5.48 -7.22,-10.86 -9.34,-17.03 -4.94,2.49 -11.35,3.6 -16.2,0.33 -3.46,-1.51 -4.27,-5.52 -5.95,-8.52 -1.61,0.95 -3.21,1.92 -4.82,2.86 -2.97,-0.52 -5.96,-0.95 -8.92,-1.46 -2.5,-3.39 -5.85,-6.16 -7.92,-9.82 -2.45,-8.62 -4.47,-17.36 -7.15,-25.91 -0.4,-2.27 -3.01,-2.61 -4.57,-3.81 -3.76,-2.01 -5.26,-7.01 -8.83,-8.85 m -29.81004,22.04 c -1.42,3.07 3.31,0.06 0,0 m -1.22,3.09 c -2.39,3.33 -5.09,6.47 -8.08,9.28 -1.76,-0.4 -3.07,-2.03 -4.62,-2.94 -0.99,3.86 -1.05,8.25 1.56,11.54 2.84,1.2 6.14,1.72 7.88,4.6 2.81,0.06 5.59,-0.54 8.01,-2.01 0.15,-2.08 -0.09,-4.42 1.35,-6.13 1.3,-1.33 2.85,-2.41 3.97,-3.92 -4.32,-1.32 -8.27,-3.57 -12.54,-5 1.08,-1.86 2.19,-3.69 3.32,-5.52 -0.21,0.02 -0.63,0.07 -0.85,0.1 m 223.86004,1.67 c -3.81,24.23 -5.17,49.08 -13.14,72.45 -4.87,14.79 -12.73,28.47 -22.23,40.76 -10.25,13.13 -23.01,24.66 -38.24,31.67 -17.62,8.32 -38.52,10.27 -57.08,3.93 -15.1,-5.34 -27.71,-16 -37.7,-28.3 -10.22,-12.66 -18.25,-26.92 -25.43,-41.48 -9.37,-18.93 -16.55004,-38.85 -25.45004,-57.98 -1.41,0.59 -2.8,1.21 -4.19,1.82 5.56,20.88 12.76,41.36 21.89004,60.95 7.19,14.93 15.05,29.67 25.08,42.9 11.87,14.97 26.74,28.36 44.92,34.99 10.74,4.07 22.72,4.89 33.87,2.06 20.09,-5.18 39.24,-14.54 55.01,-28.11 11.59,-10.08 21.48,-22.45 27.33,-36.7401 7.28,-16.8 13.16,-34.3 16.23,-52.38 1.64,-10.02 4.36,-19.82 5.9,-29.86 0.49,-3.57 1.61,-7.23 0.74,-10.81 -1.15,-3.2199 -4.43,-4.9499 -7.51,-5.8699 m -239.85004,13.02 c 0.8,1.93 1.23,5 3.75,5.29 -1.04,-2.47 -2.57,-4.83 -2.77,-7.57 -0.28,-2.85 0.78,-5.57 1.09,-8.36 -3.04,2.51 -2.77,7.13 -2.07,10.64 m 27.35,-1.43 c 2.27,-1.84 0.82,-4.84 0.23,-7.09 -1.03,2.25 -0.47,4.74 -0.23,7.09 m 223.59004,-1.67 c 2.22,6.61 3.9,13.41 6.67,19.83 2.05,5.6 4.94,11 5.6,17.02 1.01,7.67 3.32,15.23 3.04,23.03 -0.01,6.67 -0.03,13.35 -0.01,20.03 -0.73,4.81 -2.56,9.41 -4.11,14.01 -2.86,0.93 -6.03,0.61 -9,0.92 -0.85,-5.03 -1.77,-10.24 -5.23,-14.23 -4.07,3.4 -6.59,8.04 -9.58,12.3 -1.09,1.48 -4.59,4.51 -5.03,1.03 -0.1,-6.46 -1.54,-12.8 -1.39,-19.28 -5.39,16.07 -12.97,31.75 -24.91,44.02 -13.7,14.49 -31.07,25.27 -49.71,32.18 -12.39,4.78 -25.84,8 -39.13,5.45 6.75,9.22 13.04,18.77 19.48,28.21 3.57,4.87 5.34,10.71 7.9,16.12 1.92,4.7 4.36,9.21 5.86,14.07 3.76,14.36 7.4,28.75 10.7,43.22 0.93,6.34 5.97,10.83 9.36,15.9399 3.84,3.02 8.61,5.11 11.35,9.39 -4.12,-0.62 -6.41,-4.88 -10.2,-6.44 -1.87,2.38 -4.1,4.5 -5.56,7.17 -1.33,3.83 -2.02,7.85 -3.08,11.77 -1.69,7.63 -4.83,14.82 -7.35,22.2 -4.13,11.11 -7.66,22.43 -11.74,33.56 -4.96,11.04 -9.7401,22.17 -15.02,33.07 -6.19,12.73 -16.83,23.02 -21.14,36.70997 -0.99,5.49 -1.63,11.04 -2.22,16.6 -0.36,7.39 1.11,14.72 1.65,22.07 -0.22,9.32 -0.94,18.63 -1.86,27.91 -2.33,10.5 -5.21,20.9 -9,30.98 -4.48,13.36 -9.85,26.43 -16.33,38.95 -4.28,8.63 -8.91,17.11 -12.2,26.19 4.7599,5.6801 10.98,10.4301 18.43,11.78 9.72,1.79 20.25,1.66 28.93,7.05 -1.44,5.24 -2.98,10.46 -4.38,15.72 -1.01,4.9399 -1.09,10.01 -1.68,15.02 7.98,1.84 16.3,0.09 24.19,2.48 9.73,2.75 19.51,5.4 29.23,8.22 2.6,-1.74 6.17,-2.9 7.04,-6.28 1.18,-3.3199 3.2,-6.45 3.33,-10.0499 0.74,-19.73 1.28,-39.5 3.78,-59.1 1.8199,-13.37 1.69,-26.89 2.5699,-40.33 2.14,-11.98 4.03,-24.04 7.38,-35.76 1.04,-4.83 4.17,-8.7599 6.4301,-13.04 4.16,-7.73 10.24,-14.27 13.74,-22.38 5.47,-8.78 1.54,-19.47 2.93,-29.03 0.74,-5.6 5.45,-9.05997 8.73,-13.18997 12.33,-14.67 26.72,-27.4 39.39,-41.75 5.2,-6.14 11.83,-10.79 17.82,-16.09 7.66,-6.7 16.85,-11.6 23.47,-19.46 4.85,-4.65 8.98,-10 12.26,-15.86 1.3,-3.5 1.87,-7.22 2.93,-10.79 5.01,0.12 10.03,0.26 15.06,0.4 13.01,0.63 25.97,-1.08 38.94,-1.73 11.08,-0.38 21.9,-2.98 32.84,-4.52 14.04,-2.54 28.01,-5.5 42.03,-8.17 8.73,-0.99 15.7699,-6.69 23.6,-10.15 -6.9401,-21.4 -13.28,-43.02 -21.7001,-63.89 -6.9399,-17.43 -12.9399,-35.2 -18.89,-52.98 -5.91,1.13 -11.86,2.3 -17.91,2.32 -12.98,0.39 -25.74,-3.13 -37.63,-8.06 -6.1,-2.69 -9.8,-8.66 -12.36,-14.53 -4.11,-9.8 -5.41,-20.44 -7.33,-30.8 -2.72,-14.87 -5.96,-29.71 -11,-43.97 -1.42,-4.12 -4.5,-7.52 -8.32,-9.55 -10.38,-5.67 -23.17,-5.03 -33.04,-11.86 -19.86,-12.59 -38.09,-30.26 -44.85,-53.41 -1.2699,-0.09 -2.5199,-0.18 -3.7699,-0.26 m -227.21004,3.38 c -2.23,2.09 -1.2,5.59 -0.01,7.96 3.5,6.26 8.87004,11.16 13.27004,16.75 3.83,4.61 5.78,10.36 7.91,15.87 3.29,8.67 5.52,17.67 8.13,26.55 3.74,-1.63 7.47,-3.33 11.05,-5.3 -7.49,-11.87 -9.5,-26.27 -17.22,-38.01 -4.91,-7.9 -9.66,-16.16 -16.59004,-22.49 -1.74,-1.4 -4.71,-3.77 -6.54,-1.33 m -40.06,34.07 c -6.37,7.24 -13.91,13.39 -19.91,20.98 -6.83,8.47 -14.4,16.29 -22.0099,24.06 -2.84,2.79 -6.1801,4.99 -9.11,7.67 -0.84,0.58 -1.92,2.06 -0.48,2.71 3.15,2.21 6.3,4.7401 10.05,5.83 3.46,-0.44 6.1,-3 8.41,-5.4 4.37,-4.69 8.94,-9.17 13.3,-13.87 5.76,-6.16 12.31,-11.56 17.87,-17.91 5.18,-6.47 10.2,-13.09 15.85,-19.17 4.34,-4.48 7.39,-9.96 10.93,-15.05 2.38,-3.99 5.19,-8.41 4.38,-13.27 -1.26,-3.14 -4.58,-4.87 -7.7,-5.66 -7.8101,9.23 -14.5601,19.26 -21.5801,29.08 m 31.38,-21.85 c -0.97,7.95 -6.22,14.26 -10.46,20.72 -2.84,4.4 -6.67,8.01 -10.02,12.01 -5.79,6.51 -10.41,14.05 -16.91,19.93 -8.1,7.64 -15.72,15.75 -23.51,23.7 -2.91,2.88 -5.47,6.31 -9.38,7.9 0.37,1.66 0.3,3.63 1.74,4.84 3.17,3.41 6.5,6.66 9.77,9.98 1.92,-1.59 3.69,-3.51 6.04,-4.47 12.52,-4.61 25.37,-8.34 37.59,-13.73 5.7,-2.42 11.49,-4.6 17.26,-6.81 7.65,-2.59 14.19004,-7.46 21.32004,-11.13 -4.43,-9.92 -8.89004,-19.84 -12.62004,-30.06 -4.17,-10.77 -7.12,-21.97 -10.82,-32.88 m 10.25,1.36 c 7.68004,18.77 15.42004,37.54 24.38004,55.75 0.52,0.02 1.57,0.05 2.09,0.06 -3.43,-13.14 -6.95,-26.38 -12.79,-38.69 -3.62,-6.4 -9.27004,-11.3 -13.68004,-17.12 m 25.39004,57.76 c 6.4,12.14 13.3,24.12 22.08,34.73 3.02,-1.48 6.01,-3.1 8.47,-5.43 -5.1,-12 -10.22,-23.99 -15.44,-35.94 -5.03,2.25 -10.08,4.42 -15.11,6.64 m -175.12004,-0.65 c -0.16,5.8 -2.08,11.24 -4.85,16.28 9.03,2.77 18.4,4.43 27.24,7.87 5.22,1.44 9.68,4.56 14.43,7.03 3.12,-4.43 6.46,-8.73 10.57,-12.31 -5.29,-5.18 -12.3,-7.75 -18.73,-11.13 -3.62,-1.75 -7.02,-4 -10.87,-5.23 -5.76,-1.73 -11.78,-2.54 -17.79,-2.51 m 147.24,15.26 c 3.24,4.42 6.67,8.7 10.11004,12.97 3.5,4.2 7.77,8.28 13.26,9.58 3.91,1.09 8.02,0.91 12.05,0.85 -6.98,-10.5 -13.39,-21.39 -18.86,-32.75 -5.57,3.02 -11.01004,6.29 -16.56004,9.35 m -100.83,1.48 c 3.25,-0.28 6.46,-0.87 9.66,-1.48 -2.95,-1.84 -7.13,-0.63 -9.66,1.48 m 91.17,2.24 c 5.81,10.85 13.17,21.8199 24.38004,27.67 8.66,3.92 18.71,4.52 27.86,1.99 -1.8,-2.91 -3.55,-5.99 -6.26,-8.14 -6.67,-0.11 -13.93,0.13 -19.66,-3.9 -7.65,-5.37 -12.49004,-13.64 -18.39004,-20.7 -2.67,0.97 -5.31,2 -7.93,3.08 m -143.55,-0.93 c -4.92,8.4301 -10.02,17.35 -18.44,22.76 -2.93,1.98 -6.83,3.25 -7.98,6.97 -3.46,5.99 0.63,12.8 4.21,17.7 4.28,4.14 8.84,8.04 13.8,11.36 3.15,1.99 4.29,5.75 6.62,8.49 1.59,1.79 3.52,3.25 5.34,4.81 4.82,-0.06 9.99,0.64 14.32,-2.01 5.13,-1.53 7.48,-6.6 10.91,-10.23 7.13,-7.47 7.78,-18.46 13.01,-27.03 1.89,-3.52 2.98,-7.64 6.31,-10.18 -1.8,-2.13 -3.25,-4.53 -4.35,-7.09 -3.73,-1.78 -7.18,-4.07 -10.84,-5.98 -10.63,-4.25 -21.76,-7.06 -32.91,-9.57 m 56.23,-0.41 c -1.5,4.08 -6.36,5.59 -8.15,9.55 -0.72,3.83 0.9,7.92 3.88,10.39 1.5,0.73 3.3799,0 4.79,1.07 1.76,1.12 3.66,1.93 5.81,1.49 -0.63,-1.43 -1.26,-2.84 -1.89,-4.25 2.41,-3.22 4.73,-6.5 6.99,-9.82 0.86,0.26 2.56,0.78 3.41,1.05 -2.07,-2.67 -5.36,-3.88 -7.96,-5.91 -2.19,-1.37 -4.08,-3.69 -6.88,-3.57 m 16.22,8.57 c -1.34,0.91 0.19,3.17 1.55,2.28 1.14,-0.94 -0.21,-3.13 -1.55,-2.28 m -9.54,9.84 c 0.22,1.63 1.13,3.0601 1.86,4.52 2.55,4.59 4.62,9.51 8.0699,13.54 4.0601,-4.16 8.19,-8.26 12.33,-12.35 -5.2,-4.97 -9.2,-11.96 -16.73,-13.61 -1.8699,2.61 -4.0399,5.04 -5.5299,7.9 m -17.18,-2.24 c 2.47,7.41 11.23,11.37 18.55,8.94 -1.2599,-2.12 -3.77,-0.37 -5.6299,-0.72 -6.77,-0.15 -11.81,-6.11 -12.75,-12.5 -0.6401,1.36 -0.9901,2.87 -0.1701,4.28 m 158.85004,2.63 c 1.31,2.36 2.95,4.59 5.22,6.13 2.32,-0.61 4.28,-2.07 6.3,-3.32 -1.33,-2.39 -2.55,-4.83 -3.68,-7.31 -2.53,1.64 -5.15,3.14 -7.84,4.5 m 6.31,7.62 c 6.16,6.17 13.13,11.58 20.89,15.61 -3.8,-6.9901 -9.5099,-12.67 -14.21,-19.03 -2.23,1.14 -4.46,2.27 -6.68,3.42 m -165.23004,2.61 c -1.64,3.98 -3.99,7.61 -5.76,11.54 3.52,0.58 7.04,1.17 10.58,1.66 0.81,-1.94 2.06,-3.62 3.62,-5.0099 -0.01,-3.63 -0.51,-7.22 -0.9,-10.8101 -1.24,-0.75 -2.48,-1.5 -3.71,-2.24 -1.54,1.4 -3.14,2.83 -3.83,4.86 m 18.73,-2.89 c -0.85,2.3 -1.15,5.09 -3.26,6.67 -2.28,1.98 -4.37,4.16 -6.49,6.3 -2.69,2.3 -3.13,6.04 -4.2,9.22 -0.89,3.59 -3.78,6.17 -5.33,9.45 -2.28,4.67 -4.68,9.6 -9.04,12.69 -3.37,2.8799 -7.96,3.42 -12.23,3.2599 1.3,3.12 2.71,7.11 6.54,7.76 7.28,1.56 15.07,0.37 21.68,-2.96 3.87,-4.47 7.19,-9.4 10.5,-14.3 2.69,-3.83 3.78,-8.46 5.33,-12.8 1.55,-4.41 0.79,-9.67 3.95,-13.42 -2.98,-3.6399 -5.04,-7.8699 -7.45,-11.8699 m -9.48,0.82 c 0.3,2.62 0.57,5.25 0.92,7.87 2.48,-1.96 4.71,-4.31 6.06,-7.2 -2.33,-0.2 -4.67,-0.38 -6.98,-0.67 m -15.41,15.3 c -1.27,4.3 -3.16,8.38 -4.85,12.53 2.83,0.8 5.55,1.94 8.12,3.39 2.86,-4.54 6.35,-8.81 7.21,-14.28 -3.49,-0.59 -6.97,-1.19 -10.48,-1.64 m -5.44,14.1 c -3.56,4.71 -7.59,9.04 -11.14,13.76 0.63,2.65 3.78,1.86 5.79,1.75 6.4,-0.89 10.71,-6.47 13.49,-11.85 -2.43,-1.79 -5.26,-2.85 -8.14,-3.66 m 560.68004,9.94 c -11.5,4.62 -23.46,7.95 -35.17,11.94 5.84,20.06 13.43,39.57 20.95,59.05 7.3099,18.61 12.65,37.91 19.12,56.82 9.0499,-3.58 18.11,-7.3 26.38,-12.5 7.75,-4.14 14.88,-9.3 22.4199,-13.8 -2.12,-4.22 -5.0699,-7.97 -7.1,-12.23 -9.8199,-21.54 -18.5499,-43.56 -27.4199,-65.5 -2.7201,-10.28 -5.0701,-20.66 -7.55,-30.99 -4.0699,2.11 -7.29,5.61 -11.63,7.21 m 396.4,99.86 c 0.01,2.23 -1.01,4.77 0.35,6.82 3.1801,5.81 6.1,11.86 10.79,16.66 6.4299,8.14 13.73,15.49 21.1699,22.71 4.2301,3.8701 7.2201,8.82 10.6801,13.35 -0.02,1.96 -0.03,3.92 -0.03,5.9 -1.85,1.91 -3.6699,3.84 -5.38,5.86 7.84,6.7 14.53,14.51 20.8301,22.65 3,-5.84 5.7799,-11.79 8.8999,-17.58 -1.5,-2.21 -2.8999,-4.47 -4.37,-6.6801 -2.97,0.32 -5.9199,0.58 -8.88,0.8 -6.64,-10.1 -10.34,-21.79 -17.36,-31.64 -4.4199,-6.6 -8.2999,-13.59 -13.5399,-19.59 -2.9601,-3.35 -5.2201,-7.46 -9.12,-9.81 -4.7101,-3.1199 -9.3301,-6.3399 -14.0401,-9.4499 m -752.16,377.12997 c -3.1,4.25 -3.99,9.42 -4.94,14.48 -1.19,0.12 -2.3,0.3501 -3.46,0.54 1.72,0.34 3.44,0.65 5.18,0.99 1.93,-5.25 4.21,-10.39 5.89,-15.73 -0.67,-0.07 -2,-0.21 -2.67,-0.28 z M 873.22056,726.96253 c 2.88,0.81 5.71,1.87 8.14,3.66 -2.78,5.38 -7.09,10.96 -13.49,11.85 -2.01,0.11 -5.16,0.9 -5.79,-1.75 3.55,-4.72 7.58,-9.05 11.14,-13.76 z m 11.6,-27.33 c 0.69,-2.03 2.29,-3.46 3.83,-4.86 1.23,0.74 2.47,1.49 3.71,2.24 0.39,3.59 0.89,7.1801 0.9,10.8101 -1.56,1.39 -2.81,3.0699 -3.62,5.0099 -3.54,-0.49 -7.06,-1.08 -10.58,-1.66 1.77,-3.93 4.12,-7.56 5.76,-11.54 z m 45.46,-126.9 c 1.62,0.24 3.24,0.52 4.87,0.82 1.09,5.09 -1.34,10.16 -4.24,14.2 -4.21,4.24 -10.22,6.74 -16.19,6.83 -1.18,0.07 -2.1,-0.41 -2.76,-1.45 4.86,-1.98 10.43,-3.2 14.03,-7.32 3.09,-3.62 3.47,-8.59 4.29,-13.08 z"
             style="fill:#1d8db0;fill-opacity:1;stroke:#1d8db0;stroke-width:1.50971425;stroke-opacity:1" />
        </g>
      </g>
    </g>
  </g>
</svg>
