<?xml version="1.0" encoding="UTF-8" standalone="no"?>
<!-- Created with Inkscape (http://www.inkscape.org/) -->

<svg
   xmlns:dc="http://purl.org/dc/elements/1.1/"
   xmlns:cc="http://creativecommons.org/ns#"
   xmlns:rdf="http://www.w3.org/1999/02/22-rdf-syntax-ns#"
   xmlns:svg="http://www.w3.org/2000/svg"
   xmlns="http://www.w3.org/2000/svg"
   xmlns:sodipodi="http://sodipodi.sourceforge.net/DTD/sodipodi-0.dtd"
   xmlns:inkscape="http://www.inkscape.org/namespaces/inkscape"
   width="14.217952mm"
   height="14.217957mm"
   viewBox="0 0 14.217952 14.217957"
   version="1.1"
   id="svg1919"
   inkscape:version="0.92.2 (5c3e80d, 2017-08-06)"
   sodipodi:docname="solution.svg">
  <defs
     id="defs1913" />
  <sodipodi:namedview
     id="base"
     pagecolor="#ffffff"
     bordercolor="#666666"
     borderopacity="1.0"
     inkscape:pageopacity="0.0"
     inkscape:pageshadow="2"
     inkscape:zoom="1.979899"
     inkscape:cx="21.233982"
     inkscape:cy="32.881545"
     inkscape:document-units="mm"
     inkscape:current-layer="layer1"
     showgrid="false"
     fit-margin-top="0"
     fit-margin-left="0"
     fit-margin-right="0"
     fit-margin-bottom="0"
     inkscape:window-width="2400"
     inkscape:window-height="1271"
     inkscape:window-x="2391"
     inkscape:window-y="-9"
     inkscape:window-maximized="1" />
  <metadata
     id="metadata1916">
    <rdf:RDF>
      <cc:Work
         rdf:about="">
        <dc:format>image/svg+xml</dc:format>
        <dc:type
           rdf:resource="http://purl.org/dc/dcmitype/StillImage" />
        <dc:title></dc:title>
      </cc:Work>
    </rdf:RDF>
  </metadata>
  <g
     inkscape:label="Laag 1"
     inkscape:groupmode="layer"
     id="layer1"
     transform="translate(-96.99953,-145.15816)">
    <g
       id="g2637"
       transform="matrix(0.19345059,0,0,-0.19345059,7.9223118,170.1001)"
       style="stroke-width:1.50473416">
      <path
         sodipodi:nodetypes="ssssss"
         inkscape:connector-curvature="0"
         id="circle5534-7-5-4-2"
         d="m 532.35853,92.183561 c 10e-6,-13.47291 -7.58108,-25.17516 -18.71015,-31.07371 -4.90441,-2.59937 -10.49785,-4.0716 -16.43515,-4.0716 -19.41022,0 -35.1453,15.73513 -35.14529,35.14531 -1e-5,19.410189 15.73507,35.145309 35.14529,35.145309 19.41022,0 35.14529,-15.73512 35.1453,-35.145309 z"
         style="fill:none;fill-opacity:1;stroke:#1d8db0;stroke-width:3.2059648;stroke-miterlimit:4;stroke-dasharray:none;stroke-opacity:1" />
      <path
         inkscape:connector-curvature="0"
         d="m 523.39919,83.391721 c -0.39972,0.21085 -0.64949,0.6012 -0.94217,0.92956 -0.46136,0.52225 -1.15554,0.75041 -1.6414,1.24383 -0.21554,0.1932 -0.40837,0.40982 -0.63112,0.59436 -0.20724,0.18381 -0.35177,0.42242 -0.4945,0.65598 -0.19572,0.33304 -0.35107,0.69167 -0.43145,1.07048 -0.20688,0.95803 -0.1456,1.9438 -0.20759,2.91552 -0.0331,0.41414 -0.0642,0.83548 -0.20148,1.23052 -0.048,0.1456 -0.0544,0.30024 -0.0861,0.44837 -0.18598,0.31754 -0.25771,0.69599 -0.49669,0.9829 -0.0879,0.1002 -0.1211,0.23573 -0.2184,0.32763 -0.17409,0.18634 -0.34061,0.37844 -0.5093,0.56912 -0.26418,0.30131 -0.61813,0.50028 -0.96199,0.69598 -0.25842,0.14959 -0.54966,0.22491 -0.82575,0.33196 -0.18921,0.0959 -0.37159,0.20473 -0.56154,0.2988 -0.74249,0.39143 -1.53724,0.7032 -2.37272,0.81854 -0.53956,0.1777 -1.12166,0.10957 -1.66446,0.27213 -0.31249,-0.0224 -0.63472,0.0573 -0.93893,-0.0429 -0.25014,-0.0735 -0.51721,-0.0469 -0.77096,-0.008 -0.70933,0.13516 -1.33323,0.51757 -1.99966,0.77277 -0.74862,0.27644 -1.52967,0.45163 -2.30316,0.64517 -0.42169,0.0555 -0.83979,0.14849 -1.26727,0.15281 -0.90504,0.041 -1.82738,-0.097 -2.71909,0.10922 0.009,0.20508 0.027,0.43504 -0.12615,0.59687 -0.20724,0.19607 -0.52371,0.12363 -0.76159,0.25374 -0.0941,0.0522 -0.11642,0.18058 -0.0822,0.27537 0.0642,0.15319 0.2159,0.2505 0.27357,0.40692 0.0237,0.0786 -0.002,0.157509 -0.0285,0.230689 -0.88559,0.15895 -1.78413,-0.0898 -2.67224,0.0321 -0.45667,0.0631 -0.90324,0.20472 -1.30691,0.42782 -0.14923,0.0858 -0.31287,0.15644 -0.43108,0.28546 -0.10452,0.11102 -0.2779,0.15752 -0.34926,0.29556 0.0721,0.23031 0.28474,0.38494 0.39323,0.59796 0.062,0.14669 0.19608,0.24292 0.26961,0.38277 0.0951,0.17373 0.23248,0.31898 0.33087,0.49054 0.1366,0.2224 0.30276,0.4318 0.38566,0.68266 0.071,0.22995 0.15246,0.45703 0.2112,0.69058 0.0825,0.31827 0.10634,0.66825 -0.0313,0.97497 0.0569,0.15751 0.19968,0.2541 0.35105,0.30888 0.24942,0.10021 0.48767,0.24185 0.66968,0.44226 0.15571,0.17553 0.23248,0.44188 0.11786,0.65922 -0.38673,0.0472 -0.78249,-0.1867 -1.1577,-0.0148 0.0559,0.10849 0.14309,0.19392 0.22094,0.28618 0.12111,0.1348 0.14526,0.32258 0.1777,0.49344 0.0154,0.15281 -0.0173,0.33771 -0.14454,0.43504 -0.11281,0.007 -0.16795,-0.1121 -0.25877,-0.15896 -0.5385,-0.34926 -1.20818,-0.42062 -1.8346,-0.37846 -0.17554,0.0462 -0.35791,0.0544 -0.53417,0.097 -0.59146,0.13192 -1.16563,0.35756 -1.77584,0.39107 -0.1348,-0.006 -0.25049,0.0724 -0.37341,0.11497 -0.3388,0.12759 -0.68085,0.24727 -1.0074,0.40477 -0.61453,0.21986 -1.34799,0.0306 -1.89658,0.44478 -0.12614,0.054 -0.14633,0.22058 -0.27646,0.26707 -0.34096,0.14382 -0.71833,0.26349 -1.09029,0.18347 -0.12976,-0.0194 -0.24726,-0.0811 -0.37269,-0.11534 -0.14525,-0.0219 -0.27357,0.067 -0.40296,0.11714 -0.12075,0.0602 -0.25842,0.0455 -0.38783,0.0656 -0.0361,0.12975 -0.0624,0.26672 -0.14489,0.37737 -0.20869,0.32005 -0.28727,0.74069 -0.61814,0.96919 -0.27465,0.21519 -0.64157,0.21194 -0.9728,0.20761 -0.0397,0.067 -0.0609,0.15931 -0.14129,0.18924 -0.11462,0.0451 -0.24545,0.0501 -0.36511,0.0252 -0.11246,-0.0284 -0.15391,-0.14525 -0.19534,-0.24006 -0.13444,-0.0598 -0.28763,-0.0559 -0.41883,-0.1229 -0.28004,-0.12435 -0.46242,-0.38927 -0.59867,-0.65274 -0.16544,-0.38854 -0.002,-0.83079 -0.1593,-1.22151 -0.0551,-0.14741 -0.19176,-0.23571 -0.29087,-0.35033 -0.11643,-0.12904 -0.25231,-0.24978 -0.31827,-0.4145 -0.0378,-0.17949 0.14273,-0.3042 0.29664,-0.33772 0.29159,-0.049 0.56696,0.0872 0.84521,0.14993 0.13913,-0.21156 0.0768,-0.46891 0.0742,-0.70392 0.0703,-0.22022 0.33486,-0.10488 0.49019,-0.18957 0.039,-0.0588 0.0397,-0.13229 0.054,-0.19968 0.0689,-0.0159 0.13769,-0.0321 0.20653,-0.049 0.005,-0.022 0.0144,-0.066 0.0195,-0.0879 0.0656,-0.0317 0.13409,-0.058 0.20365,-0.0825 0.0199,-0.12759 0.14093,-0.21085 0.26779,-0.18238 0.24798,0.0371 0.33917,0.30781 0.52552,0.43937 0.1611,0.0202 0.35106,-0.009 0.44728,-0.15535 -0.0346,-0.0429 -0.0934,-0.10668 -0.0313,-0.15463 0.16364,-0.13083 0.31826,-0.27212 0.47433,-0.41124 0.14886,-0.0209 0.25087,0.10958 0.36295,0.1831 0.0526,-0.0948 0.0634,-0.21842 0.15607,-0.28691 0.12507,-0.0984 0.28222,-0.14057 0.42531,-0.20544 0.009,-0.0159 0.0271,-0.0476 0.0361,-0.0634 -0.0739,-0.1831 -0.0123,-0.42422 0.16796,-0.52119 -0.067,-0.0786 -0.12146,-0.1748 -0.0843,-0.28113 0.0642,-0.15822 0.1903,-0.29808 0.17155,-0.48154 -0.1074,-0.0504 -0.22743,-0.0274 -0.34132,-0.0407 -0.11822,0.005 -0.16292,-0.17373 -0.28798,-0.12616 -0.16111,0.0397 -0.32511,0.0749 -0.48153,0.12796 -0.0764,0.0933 -0.0588,0.23753 -0.15139,0.32007 -0.19391,0.0461 -0.40044,0.048 -0.59147,-0.014 -0.0306,0.10669 -0.0718,0.23211 -0.1885,0.27067 -0.28582,0.0883 -0.55615,0.23357 -0.85566,0.27106 -0.13661,-0.007 -0.26059,-0.0736 -0.39575,-0.0847 -0.0901,5.2e-4 -0.16147,0.0725 -0.25122,0.0725 -0.30132,0.006 -0.61201,0.0627 -0.90576,-0.0318 -0.0836,-0.0212 -0.16868,-0.0912 -0.25626,-0.0444 -0.19102,0.0966 -0.25339,0.34673 -0.46424,0.41522 -0.0753,0.039 -0.14129,-0.0231 -0.20797,-0.0491 -0.24077,-0.11786 -0.5201,-0.0836 -0.76663,-0.004 -0.0173,0.0829 -0.0148,0.18492 -0.0926,0.23752 -0.0674,0.0462 -0.14057,0.0988 -0.22635,0.0944 -0.2224,0.009 -0.41234,-0.12543 -0.62355,-0.16903 -0.13517,-0.0376 -0.28042,-0.01 -0.40404,0.0504 -0.12759,0.0555 -0.0793,0.24184 -0.19897,0.30599 -0.12326,0.0569 -0.26347,0.11066 -0.40006,0.0735 -0.22023,-0.0548 -0.41199,-0.20617 -0.64409,-0.21446 -0.11463,-5.2e-4 -0.23104,0.0126 -0.33918,0.0526 -0.12795,0.0776 -0.13985,0.26349 -0.27896,0.32981 -0.11499,0.0465 -0.23212,0.0973 -0.35684,0.10885 -0.10632,0.0126 -0.17913,-0.0793 -0.26635,-0.12291 -0.2815,-0.16075 -0.62031,-0.14706 -0.93316,-0.13372 -0.0148,0.10128 -0.0105,0.204 -0.009,0.30565 -0.20436,0.0667 -0.42098,0.0324 -0.63147,0.0397 -0.19247,0.01 -0.23356,-0.21842 -0.399,-0.26528 -0.22238,-0.0728 -0.46063,-0.0469 -0.69093,-0.058 -0.0271,0.0764 -0.0476,0.15533 -0.0869,0.22598 -0.0815,0.0754 -0.19824,0.0772 -0.30061,0.0959 -0.16255,-0.007 -0.28978,-0.11173 -0.40259,-0.2177 -0.0638,-0.0713 -0.0573,-0.19283 -0.15462,-0.23572 -0.17662,-0.089 -0.38062,-0.0991 -0.5612,-0.17986 -0.19716,0.088 -0.39071,-0.0201 -0.57309,-0.0905 -0.10741,-0.0465 -0.23211,-0.0386 -0.32834,0.0299 -0.41198,0.2361 -0.9173,0.25302 -1.31234,0.52372 -0.17876,0.18021 -0.39899,0.40188 -0.67725,0.35249 -0.0263,-0.18381 -0.0173,-0.38278 0.071,-0.55001 0.0764,-0.16904 0.11678,-0.35466 0.21771,-0.51253 0.1229,-0.18562 0.27572,-0.34961 0.43395,-0.50605 0.0248,-0.0328 0.0728,-0.0559 0.0764,-0.10091 -0.0199,-0.066 -0.089,-0.1103 -0.0952,-0.1813 -0.006,-0.25122 -0.16652,-0.46568 -0.18093,-0.71582 -0.0159,-0.14453 0.0342,-0.28943 0.002,-0.43323 -0.071,-0.35936 -0.21374,-0.69888 -0.32655,-1.04562 -0.0926,-0.57668 -0.23789,-1.1458 -0.2851,-1.72898 -0.0692,-0.22311 -0.0869,-0.45739 -0.12579,-0.686619 0.0263,-0.45776 -0.29808,-0.85963 -0.2296,-1.3217 0.15066,-0.80592 -0.13155,-1.61797 -0.009,-2.42569 0.0206,-0.15967 0.0595,-0.32115 0.14923,-0.4574 0.13155,-0.21301 0.34926,-0.34925 0.50784,-0.53919 0.18021,-0.20294 0.37268,-0.41487 0.63833,-0.50316 0.24977,-0.0778 0.55326,-0.0476 0.74789,0.14092 0.10237,0.058 0.22635,0.0707 0.32799,0.13408 0.22852,0.13084 0.49559,0.24148 0.63148,0.48118 0.0754,0.17876 0.15894,0.36403 0.15534,0.56191 0.009,0.17335 -0.12615,0.32979 -0.0695,0.50495 0.0602,0.18527 0.17408,0.34891 0.28618,0.50569 0.0833,0.0764 0.1121,0.20796 0.21986,0.25518 0.20041,0.045 0.3835,-0.0829 0.54894,-0.17769 0.15643,-0.15534 0.31645,-0.30745 0.46495,-0.47073 0.60588,-0.55542 1.2752,-1.09786 2.08978,-1.29971 0.29339,-0.0887 0.6012,-0.0331 0.90144,-0.0551 0.22923,0.0282 0.45197,0.11102 0.65201,0.22637 0.49632,0.28185 0.75763,0.85638 1.29467,1.08055 0.19824,-0.11136 0.24653,-0.38637 0.47362,-0.45558 0.11245,-0.0306 0.18525,-0.12867 0.25229,-0.21734 0.098,-0.1312 0.15715,-0.28654 0.19356,-0.44549 -0.16004,-0.14597 -0.36945,-0.21517 -0.57525,-0.26707 -0.56876,-0.10092 -1.15194,-0.0306 -1.72178,-0.11859 -0.29845,-0.1157 -0.46856,-0.41016 -0.61598,-0.67688 -0.16075,-0.2743 -0.16795,-0.603 -0.14453,-0.91189 -0.003,-0.19175 -0.003,-0.39251 0.0915,-0.56587 0.0584,-0.13806 0.18635,-0.22816 0.24943,-0.36333 0.086,-0.18421 0.21966,-0.347 0.32497,-0.52019 0.0498,-0.0819 0.11027,-0.17241 0.12968,-0.26579 0.0199,-0.0958 0.0319,-0.18987 0.0626,-0.2841 0.10528,-0.32257 0.30497,-0.6047 0.41502,-0.924 0.10002,-0.2902 0.10481,-0.61867 0.28059,-0.87977 0.10546,-0.15665 0.27102,-0.26881 0.45239,-0.3184 0.19774,-0.054 0.43571,-0.0334 0.63774,-0.0162 0.008,0.0523 0.0495,0.0947 0.0972,0.11743 0.0478,0.0229 0.10143,0.0291 0.15405,0.0347 0.43263,0.0448 0.87076,0.0458 1.30169,-0.0132 0.102,-0.014 0.20913,-0.0339 0.28728,-0.10086 0.0562,-0.0482 0.0912,-0.11565 0.12693,-0.18041 0.10769,-0.19524 0.24087,-0.37244 0.36136,-0.55906 0.0721,-0.11303 0.17067,-0.20666 0.2414,-0.32088 h 0.40372 c -8e-4,0.003 -0.003,0.004 -0.004,0.007 0.13985,-0.0183 0.27537,-0.0602 0.41523,-0.0793 0.45089,-0.0595 0.90864,-0.0361 1.35773,0.0241 0.1449,0.0267 0.19715,0.17986 0.17553,0.31032 -0.0378,0.0429 -0.0966,0.0761 -0.10308,0.13769 -0.0742,0.35719 -0.26348,0.67509 -0.44009,0.98939 -0.14813,0.19679 -0.21301,0.44656 -0.38783,0.62426 -0.17661,0.18814 -0.38602,0.36043 -0.64156,0.42351 -0.11029,0.0241 -0.22923,0.0559 -0.33772,0.009 -0.14598,-0.0595 -0.33088,-0.0119 -0.45162,-0.13264 -0.15066,-0.15679 -0.15788,-0.41557 -0.35863,-0.53198 -0.0879,0.0342 -0.17373,0.0721 -0.26203,0.10379 0.0191,0.0991 0.1557,0.20292 0.0519,0.29555 -0.29519,0.31322 -0.7497,0.39359 -1.16239,0.37125 -0.19895,0.0486 -0.25015,0.2761 -0.33629,0.43395 -0.1193,0.15931 -0.2148,0.33413 -0.33808,0.49019 -0.15137,0.28762 -0.3633,0.53919 -0.50244,0.83331 0.14742,0.0379 0.28114,-0.0407 0.41486,-0.0901 0.29915,-0.10489 0.57921,-0.25878 0.88631,-0.34168 0.31789,-0.17193 0.68229,-0.20617 1.03514,-0.24437 0.34133,-0.0342 0.70609,-0.0754 0.98902,-0.28762 0.51074,-0.4109 1.15122,-0.59868 1.76648,-0.7897 0.39467,-0.11283 0.74789,-0.32692 1.1094,-0.51506 0.23428,-0.10344 0.49596,-0.11138 0.7479,-0.11967 1.15697,-0.17516 2.34243,0.0257 3.49076,-0.22815 0.24079,-0.0444 0.46965,-0.15029 0.71798,-0.15282 1.35234,-0.11066 2.7144,-0.27213 4.06999,-0.11642 0.4826,0.0188 0.96486,0.0501 1.44532,0.0991 1.45866,0.0237 2.92633,0.004 4.36842,-0.23825 0.52046,-0.1175 1.02795,-0.29086 1.51344,-0.51325 0.1777,-0.0944 0.33665,-0.21914 0.49992,-0.33701 0.13011,-0.0959 0.27104,-0.17913 0.38927,-0.29194 0.29123,-0.27249 0.40476,-0.68409 0.71329,-0.94181 0.18418,-0.15103 0.36403,-0.30781 0.55615,-0.4491 0.17408,-0.13767 0.32151,-0.30564 0.50062,-0.43756 0.11715,-0.0865 0.21915,-0.19065 0.31214,-0.30311 0.48911,-0.47217 1.18042,-0.60805 1.74701,-0.95587 0.2851,-0.18959 0.58534,-0.37305 0.80051,-0.64589 0.0703,-0.0995 0.19283,-0.13877 0.27645,-0.22491 0.18886,-0.19679 0.40405,-0.36584 0.61779,-0.53452 0.19138,-0.11822 0.3478,-0.28582 0.55001,-0.38782 0.52119,-0.2869 1.14834,-0.39684 1.5823,-0.82863 0.11568,-0.1503 0.27031,-0.2714 0.35574,-0.44405 0.11786,-0.19391 0.23067,-0.39071 0.35862,-0.57849 0.12399,-0.22419 0.32079,-0.39359 0.49451,-0.57813 0.0663,-0.11353 0.19211,-0.18454 0.23429,-0.31321 0.0522,-0.15175 0.13661,-0.28943 0.21734,-0.42747 0.12037,-0.19933 0.1921,-0.42387 0.32222,-0.61814 0.0998,-0.14382 0.12362,-0.32512 0.22815,-0.46604 0.10669,-0.17337 0.0941,-0.39828 0.22563,-0.55974 0.0678,-0.08 0.0797,-0.18815 0.11642,-0.28402 0.12543,-0.34855 0.30168,-0.67833 0.39936,-1.03696 0.0288,-0.10236 0.0277,-0.21662 0.0876,-0.30889 0.13516,-0.21338 0.14237,-0.47901 0.26816,-0.69671 0.0638,-0.10778 0.10813,-0.22779 0.18851,-0.32619 0.1485,-0.18851 0.33772,-0.35899 0.40873,-0.5958 0.0519,-0.25591 0.17912,-0.49882 0.36619,-0.68228 0.0825,-0.13049 0.19608,-0.23825 0.27466,-0.37197 0.13263,-0.18923 0.31932,-0.33124 0.48008,-0.49596 0.14273,-0.133 0.26203,-0.29122 0.41594,-0.41305 0.0833,-0.0609 0.20221,-0.13661 0.30204,-0.0642 0.14922,0.10488 0.13587,0.31212 0.24041,0.44946 0.0638,0.16038 0.10416,0.33015 0.15462,0.49522 0.21229,-0.0681 0.35682,-0.24364 0.51614,-0.38891 0.22779,-0.21841 0.49992,-0.38097 0.76159,-0.55434 0.16723,-0.0188 0.31393,0.10345 0.39033,0.24186 0.18059,0.44188 0.29557,0.92198 0.25376,1.40135 -0.018,0.38999 -0.10273,0.80412 -0.36873,1.10435 -0.21265,0.23394 -0.48514,0.40333 -0.69022,0.64483 -0.22492,0.14813 -0.48838,-0.1395 -0.71977,-0.003 -0.15103,0.0595 -0.1932,0.22742 -0.2087,0.37196 0.0444,0.0321 0.10417,0.0523 0.12687,0.10669 -0.013,0.20724 -0.14993,0.37736 -0.29158,0.51685 -0.26672,0.32619 -0.55759,0.63797 -0.75798,1.01137 -0.10165,0.12218 -0.15715,0.26961 -0.19644,0.42135 -0.0285,0.1229 -0.1377,0.19859 -0.19391,0.30564 -0.26095,0.59146 -0.46641,1.20563 -0.71654,1.80179 -0.17552,0.41954 -0.18742,0.88054 -0.26853,1.32242 -0.0375,0.22779 -0.16759,0.42675 -0.2094,0.65311 -0.0313,0.13047 -0.004,0.27392 -0.0742,0.39358 -0.0569,0.13192 -0.2004,0.18166 -0.29663,0.27718 -0.26709,0.19714 -0.55183,0.37016 -0.84269,0.52946 -0.24977,0.16833 -0.48982,0.35106 -0.72698,0.53669 -0.13517,0.10199 -0.23682,0.23969 -0.36008,0.3543 -0.1575,0.14742 -0.26203,0.33844 -0.40692,0.49631 -0.18636,0.2159 -0.29411,0.48731 -0.49416,0.69095 -0.23067,0.38999 -0.41665,0.80953 -0.52587,1.24998 -0.0966,0.38601 -0.13912,0.79186 -0.0595,1.18509 0.10634,0.81349 0.33304,1.60788 0.39972,2.42714 0.049,0.69959 -0.0263,1.45507 -0.44693,2.03968 -0.0822,0.15318 -0.12146,0.32762 -0.23391,0.46423 -0.18924,0.40981 -0.40766,0.80699 -0.66608,1.17753 -0.04,0.102 0.003,0.25554 0.1211,0.28041 0.14958,0.0519 0.30997,0.003 0.46387,0.0253 0.40009,0.0973 0.8171,0.0598 1.2215,0.0144 0.31754,-0.0486 0.68013,-0.10777 0.89495,-0.37088 0.14778,-0.2696 0.32151,-0.53992 0.3525,-0.8535 0.21446,-0.65311 0.0346,-1.35559 0.21158,-2.01517 0.0324,-0.11173 0.0576,-0.27573 0.21049,-0.26672 0.0415,0.14886 -0.003,0.30962 0.0653,0.45306 0.0728,-0.0692 0.0566,-0.1784 0.084,-0.26816 0.15931,-0.59651 -0.18923,-1.19484 -0.0472,-1.79278 0.14165,-0.34818 0.23319,-0.73961 0.51181,-1.01066 0.0425,-0.0537 0.11678,-0.0234 0.17518,-0.0259 0.10812,-0.10813 0.10488,-0.27356 0.18851,-0.39538 0.0869,-0.0815 0.19534,-0.14202 0.2613,-0.24582 0.23609,-0.33736 0.29122,-0.75799 0.37089,-1.15266 0.018,-0.11641 0.0944,-0.21193 0.12398,-0.3251 0.0446,-0.133 0.0544,-0.28548 0.1521,-0.39468 0.19968,-0.23464 0.33412,-0.53091 0.59039,-0.71329 0.18525,-0.0732 0.34205,-0.21194 0.44369,-0.38277 0.24545,-0.36512 0.63724,-0.58714 1.02037,-0.78106 0.40188,-0.22744 0.78719,-0.49018 1.22006,-0.65779 0.28294,-0.11389 0.58462,-0.17625 0.88846,-0.19751 0.10488,-8e-4 0.18995,-0.071 0.28835,-0.0998 0.21265,-0.0671 0.44621,-0.071 0.64444,-0.18383 0.0768,-0.0472 0.16833,-0.0461 0.25628,-0.0382 -0.0638,0.098 -0.18311,0.13335 -0.25376,0.22419 0.40694,-0.0217 0.77276,-0.23068 1.11625,-0.43432 0.16833,-0.10886 0.32224,-0.2397 0.49813,-0.33701 0.0793,-0.0411 0.16434,-0.0872 0.25771,-0.0761 -0.0551,0.0735 -0.11788,0.13985 -0.1741,0.21122 0.19715,0.0548 0.34062,-0.13697 0.52983,-0.14633 0.1932,-0.0177 0.38207,-0.0634 0.57346,-0.0962 0.0876,-0.0105 0.18021,-0.0324 0.26562,0.005 -0.12937,0.0771 -0.28111,0.10125 -0.41013,0.17694 z m -47.01096,16.715699 c 0.21626,0.11894 0.46964,0.14273 0.71076,0.10704 -0.28546,-0.13804 -0.55325,-0.308519 -0.81565,-0.485869 0.04,0.12473 0.0851,0.24871 0.10489,0.378829 z m 4.03791,-2.914099 c -0.44693,-0.0328 -0.73745,-0.40944 -1.05318,-0.6794 -0.21879,-0.15426 -0.39106,-0.37052 -0.64086,-0.47974 -0.33807,-0.22526 -0.77203,-0.19643 -1.14832,-0.0995 -0.38494,0.0818 -0.73131,0.27573 -1.06687,0.47252 -0.30024,0.1968 -0.59364,0.41414 -0.8243,0.69131 -0.31539,0.27321 -0.65744,0.57814 -1.09608,0.60372 -0.0126,0.039 -0.0245,0.0771 -0.0367,0.11498 0.039,0.11137 0.0462,0.2595 0.16075,0.32258 0.78753,0.48982 1.57363,0.9829 2.36046,1.47453 0.16399,0.10489 0.33484,0.19931 0.48766,0.32077 0.13157,0.0995 0.30709,0.0999 0.45559,0.0407 0.32258,-0.0699 0.62822,-0.19967 0.92161,-0.34854 0.18562,-0.0739 0.32295,-0.2249 0.49055,-0.32943 0.17913,-0.10956 0.27032,-0.30925 0.42927,-0.44153 0.15318,-0.11894 0.22346,-0.30528 0.34097,-0.45378 0.11857,-0.14345 0.19175,-0.31826 0.25158,-0.49307 0.0555,-0.15786 0.0274,-0.32727 0.0425,-0.4909 0.009,-0.083 -0.0256,-0.16004 -0.0747,-0.22528 z m 12.37861,5.751399 c -0.0674,-0.0364 -0.14993,-0.0699 -0.1903,-0.1366 -0.004,-0.12291 -0.0227,-0.24366 -0.0497,-0.36332 -0.1712,0.0274 -0.30889,0.1348 -0.44909,0.22779 -0.11246,0.08 -0.25302,0.0995 -0.37016,0.16977 -0.20509,0.12038 -0.44405,0.15607 -0.65923,0.25051 -0.27969,0.13839 -0.60769,0.0432 -0.89387,0.15858 -0.0123,0.11029 -0.004,0.2231 0.0476,0.32294 0.39936,-0.0266 0.8045,0.0973 1.19808,-0.008 0.2076,-0.0509 0.33809,-0.24725 0.54858,-0.29338 0.30204,-0.11319 0.61886,-0.006 0.92487,0.0123 0.13876,-0.0944 0.18596,-0.26889 0.20796,-0.42675 -0.10524,0.0256 -0.20292,0.10849 -0.31466,0.0861 z"
         id="path87640-1"
         style="fill:#1d8db0;fill-opacity:1;stroke:none;stroke-width:0.03512489;stroke-opacity:1" />
    </g>
  </g>
</svg>
